<svg xmlns="http://www.w3.org/2000/svg" xmlns:xlink="http://www.w3.org/1999/xlink" width="664" height="237" viewBox="0 0 664 237" fill="none"><g opacity="1"  transform="translate(0 0)  rotate(0)"><mask id="bg-mask-0" fill="white"><use transform="translate(0 0)  rotate(0)" xlink:href="#path_0"></use></mask><g mask="url(#bg-mask-0)" ><path id="矩形 1" fill-rule="evenodd" style="fill:#FFFFFF" opacity="0.75" d="M54,231c-27.61,0 -50,-22.39 -50,-50v-129c0,-27.61 22.39,-50 50,-50h556c27.61,0 50,22.39 50,50v129c0,27.61 -22.39,50 -50,50z"></path><path id="文本 2" fill-rule="evenodd" style="fill:#000000" opacity="1" d="M160.27,154.24l5.35,-6.7c0,0 6.07,4.74 9.77,8.15c-0.31,1.13 -1.13,1.65 -2.67,1.65h-90.9l-0.82,-3.1h43.29v-64.47h-35.37l-0.93,-3.09h65.4l5.34,-6.71c0,0 6.17,4.75 9.87,8.15c-0.31,1.14 -1.44,1.65 -2.77,1.65h-34.45v64.47zM208.6,71.41l10.39,3.72c-0.52,1.13 -1.65,1.96 -4.01,1.75c-3.19,8.15 -7,15.99 -11.31,23.1l4.52,1.66c-0.31,0.82 -1.34,1.54 -3.09,1.85v60.14c-0.2,0.51 -2.98,2.27 -5.44,2.27h-1.24v-57.77c-4.42,6.3 -9.25,11.87 -14.19,16.4l-1.44,-1.13c9.67,-12.28 19.74,-31.98 25.81,-51.99zM264.74,92.15l4.94,-6.3c0,0 5.65,4.44 9.15,7.64c-0.31,1.03 -1.34,1.54 -2.68,1.54h-30.94v18.57h15.83l4.63,-5.88c0,0 5.34,4.13 8.63,7.22c-0.31,1.14 -1.33,1.65 -2.77,1.65h-26.32v19.08h17.06l4.84,-6.18c0,0 5.55,4.33 9.04,7.53c-0.3,1.13 -1.33,1.65 -2.67,1.65h-28.27v25.06c0,0.41 -2.16,2.17 -5.76,2.17h-1.03v-70.87h-8.02c-5.66,9.39 -12.13,17.64 -19.13,23.62l-1.44,-1.13c8.64,-10.83 17.79,-28.26 23.24,-46l10.39,3.81c-0.41,1.14 -1.75,1.86 -4.01,1.76c-2.16,5.26 -4.73,10.31 -7.41,15.06zM325.41,71.93l1.02,-0.93c19.33,2.68 14.19,16.92 7.2,12.38c-0.82,-4.02 -4.73,-8.98 -8.22,-11.45zM368.8,88.02h-68.07c0.1,6.5 -2.57,10.73 -5.45,12.69c-2.37,1.75 -6.07,1.96 -7.2,-0.42c-0.92,-2.27 0.41,-4.22 2.47,-5.46c4.01,-2.17 7.5,-8.15 6.99,-14.55l1.75,-0.1c0.51,1.75 0.92,3.2 1.13,4.75h67.66l4.21,-4.44l7.92,7.63c-0.82,0.83 -1.95,1.03 -3.91,1.14c-1.85,3.19 -5.34,7.84 -8.22,10.52l-1.34,-0.83c0.72,-2.78 1.54,-7.42 2.06,-10.93zM303.3,130.83l-3.7,-9.08c0,0 2.05,-0.31 2.77,-0.72c8.13,-3.72 18.31,-12.69 23.65,-18.67h-25.29l-0.82,-2.99h53.77l4.53,-5.26c0,0 5.24,3.61 8.43,6.6c-0.11,1.13 -1.13,1.65 -2.57,1.65h-32.7l5.65,3.3c-0.51,0.72 -1.95,1.55 -4.11,1.03c-5.96,4.85 -15.94,11.14 -25.09,15.57c11.83,-0.2 30.64,-0.92 50.28,-1.85c-3.39,-3.92 -7.5,-7.63 -10.79,-10.32l1.13,-1.03c26.83,9.59 23.54,25.27 16.14,21.04c-0.93,-2.37 -2.67,-4.95 -4.73,-7.53c-13.16,1.65 -31.98,3.82 -53.88,5.57c-0.72,1.45 -1.75,2.38 -2.67,2.69zM365.81,159.09l5.04,-6.29c0,0 5.97,4.33 9.67,7.63c-0.31,1.13 -1.34,1.65 -2.78,1.65h-89.86l-0.93,-2.99h43.19v-15.58h-31.26l-0.83,-2.99h32.09v-14.13l10.28,1.03c-0.21,1.34 -1.03,2.27 -3.4,2.68v10.42h19.03l4.83,-5.98c0,0 5.65,4.13 9.15,7.32c-0.31,1.14 -1.34,1.65 -2.78,1.65h-30.23v15.58zM439.85,82.14v46.83c0,0.72 -2.47,2.27 -5.25,2.27h-1.13v-55.39l6.99,3.2h27.46l3.59,-3.82l7.41,5.98c-0.52,0.62 -1.85,1.45 -3.6,1.76v45.69c-0.1,0.62 -3.19,2.37 -5.45,2.37h-1.03v-48.89zM428.84,118.55h-18.2c-0.2,2.68 -0.51,5.26 -0.92,7.94c23.85,11.87 18.2,29.81 11.1,23.83c-0.41,-7.22 -5.75,-15.68 -11.51,-21.35c-2.57,13.92 -8.13,27.23 -19.64,36.72l-1.54,-1.13c11.2,-12.49 15.01,-29.2 16.24,-46.01h-15.73l-0.82,-2.99h16.76c0.2,-4.13 0.31,-8.35 0.31,-12.48v-6.6h-14.3l-0.82,-3.1h15.12v-22.07l10.07,1.13c-0.2,1.45 -1.03,2.48 -3.6,2.89v18.05h6.17l4.22,-5.15c0,0 4.73,3.71 7.71,6.6c-0.31,1.13 -1.23,1.65 -2.67,1.65h-15.43v6.7c0,4.03 -0.1,8.25 -0.41,12.38h8.23l4.32,-5.36c0,0 4.93,3.81 7.91,6.7c-0.2,1.14 -1.13,1.65 -2.57,1.65zM450.64,89.36l9.56,1.03c-0.2,1.34 -1.13,2.48 -3.49,2.79c-0.62,30.84 0,56.42 -38.46,72.82l-1.33,-1.86c34.54,-17.33 33.62,-42.49 33.72,-74.78zM481.9,142.28l0.2,14.02c1.96,0.73 2.37,1.34 2.37,2.58c0,2.38 -2.57,3.82 -13.78,3.82h-7.2c-6.27,0 -7.3,-1.55 -7.3,-5.67v-34.87l8.54,1.14c-0.11,1.23 -1.13,2.16 -2.98,2.47v29.71c0,1.34 0.3,1.75 2.77,1.75h6.07c2.77,0 5.04,0 5.86,-0.1c0.92,-0.1 1.13,-0.31 1.34,-1.24c0.61,-1.55 1.74,-7.84 2.57,-13.61zM573.72,72.03l10.28,1.24c-0.31,1.44 -1.34,2.47 -3.8,2.78v79.64c0,5.67 -1.03,9.07 -10.59,10.1c-0.31,-2.16 -0.83,-3.92 -2.27,-5.05c-1.54,-1.14 -4.11,-2.06 -8.84,-2.68v-1.65c0,0 10.59,0.93 12.75,0.93c1.95,0 2.47,-0.62 2.47,-2.27zM554.18,82.55l9.77,1.14c-0.21,1.44 -1.13,2.37 -3.6,2.68v53.95c0,0.92 -2.77,2.37 -4.93,2.37h-1.24zM516.76,91.63l9.97,2.58c-0.41,1.24 -1.44,2.27 -3.81,2.27c-0.82,35.27 -0.41,55.8 -29.81,68.9l-1.34,-1.86c24.88,-14.13 24.88,-33.42 24.99,-71.89zM521.59,136.91l1.13,-0.82c27.86,12.58 22.82,30.63 14.91,24.96c-1.75,-7.94 -9.77,-18.05 -16.04,-24.14zM499.28,76.88l7.5,3.2h27.04l3.4,-4.13l7.5,5.98c-0.72,0.73 -1.85,1.45 -4.11,1.76v50.33c0,0.52 -2.47,2.07 -5.35,2.07h-1.03v-53.02h-28.68v52.4c0,0.51 -2.06,2.06 -5.25,2.06h-1.02z"></path></g></g><defs><rect id="path_0" x="0" y="0" width="664" height="237" /></defs></svg>