<svg xmlns="http://www.w3.org/2000/svg" xmlns:xlink="http://www.w3.org/1999/xlink" width="664" height="237" viewBox="0 0 664 237" fill="none"><g opacity="1"  transform="translate(4 2)  rotate(0)"><g id="矩形 1" filter="url(#filter_2)"><g id="矩形 1" filter="url(#filter_1)"><path id="矩形 1" fill-rule="evenodd" style="fill:#FFFFFF" opacity="0.75" d="M50 229L606 229C633.61 229 656 206.61 656 179L656 50C656 22.39 633.61 0 606 0L50 0C22.39 0 0 22.39 0 50L0 179C0 206.61 22.39 229 50 229Z"></path></g></g><path id="文本 1" fill-rule="evenodd" style="fill:#000000" opacity="1" d="M161.96,89.09l4.12,-4.53l8.23,6.85c-0.84,0.84 -2.21,1.48 -4.43,1.79c-0.85,36.27 -2.96,57.25 -7.71,62.95c-2.95,3.27 -7.07,4.85 -11.72,4.85c0,-2.32 -0.42,-4.12 -1.79,-5.28c-1.58,-1.26 -5.81,-2.31 -9.82,-2.95l0.11,-1.9c4.33,0.43 11.5,1.16 13.72,1.16c2.22,0 2.96,-0.31 4.22,-1.47c3.7,-3.59 5.39,-25.09 6.13,-58.31h-15.2c-1.06,24.36 -5.39,50.61 -25.03,70.43l-1.79,-1.68c15.31,-19.93 18.9,-44.71 19.74,-68.75h-16.26l-0.95,-3.16h17.32c0.1,-7.59 0.1,-15.18 0.1,-22.46l11.09,1.16c-0.32,1.48 -1.06,2.53 -3.7,2.95c-0.1,5.91 -0.1,12.02 -0.31,18.35zM206.83,146.97v-59.57h-19.53v59.57zM209.79,79.6l8.97,7.07c-0.74,0.94 -2.75,1.89 -4.96,2.31v67.38c-0.21,0.74 -3.59,2.53 -5.91,2.53h-1.06v-8.96h-19.53v7.9c0,0.74 -2.54,2.43 -5.49,2.43h-1.27v-79.6l7.29,3.58h17.84zM228.89,163l-1.47,-1.48c22.69,-16.76 40.22,-44.07 46.24,-77.49c-0.11,-1.06 -0.32,-2 -0.43,-2.95c-0.63,-3.06 -9.92,-6.33 -17.42,-8.65c0.95,-1.47 3.07,-5.16 4.02,-6.43c8.23,4.53 16.15,9.28 17.42,14.87c5.48,33.21 22.8,62.31 49.51,74.75l-0.42,1.48c-4.02,0 -7.5,2.53 -8.66,5.69c-19.43,-11.6 -33.04,-34.37 -40.43,-61.79c-7.5,24.78 -24.81,47.66 -48.36,62zM402.56,73.49l1.05,-0.85c23.23,7.28 18.27,21.93 11.3,17.19c-1.69,-5.48 -7.6,-12.34 -12.35,-16.34zM429.58,138.12l-1.79,15.6c3.17,3.8 3.38,5.17 2.53,6.33c-2.21,3.27 -8.44,0.63 -13.19,-2.85c-6.55,-4.43 -11.72,-10.44 -15.63,-17.71c-8.34,8.12 -18.79,15.39 -31.25,20.35l-0.95,-1.48c11.72,-6.01 21.75,-14.55 29.67,-24.14c-3.91,-8.86 -6.34,-19.19 -7.92,-30.69h-24.7v17.09c6.75,-1.69 13.93,-3.48 21.22,-5.38l0.42,1.79c-6.02,2.21 -13.2,4.96 -21.64,7.91v27.31c0,5.58 -1.27,9.59 -11.09,10.64c-0.21,-2.1 -0.95,-4.11 -2.32,-5.06c-1.58,-1.37 -4.22,-2.21 -9.29,-2.84v-1.58c0,0 11.08,0.84 13.41,0.84c2,0 2.53,-0.74 2.53,-2.32v-24.57c-5.91,2.11 -12.46,4.33 -19.53,6.65c-0.42,1.26 -1.37,2.21 -2.32,2.53l-3.8,-8.65c5.17,-0.84 14.46,-2.95 25.65,-5.69v-18.67h-25.13l-0.84,-3.16h25.97v-18.98c-7.81,1.9 -16.15,3.59 -24.18,4.54l-0.52,-1.8c15.09,-3.58 33.36,-10.54 42.44,-15.81l8.34,6.75c-0.95,0.95 -2.75,1.05 -5.39,0.1c-3.9,1.48 -8.65,2.96 -13.93,4.43v20.77h24.38c-1.16,-10.33 -1.68,-21.4 -1.68,-33.1l10.76,1.26c-0.21,1.27 -1.05,2.53 -3.8,2.85c-0.1,9.91 0.21,19.71 1.27,28.99h18.9l5.06,-6.22c0,0 5.81,4.32 9.4,7.7c-0.32,1.16 -1.16,1.68 -2.64,1.68h-30.4c1.16,8.97 3.06,17.4 5.91,24.68c4.64,-6.43 8.23,-13.29 10.77,-19.93l10.13,4.22c-0.63,1.26 -1.58,1.79 -4.22,1.37c-3.38,6.85 -7.92,13.91 -13.83,20.56c3.48,6.64 8.13,12.12 14.15,15.92c1.68,1.47 2.32,1.37 3.27,-0.53c1.26,-2.64 3.17,-7.7 4.43,-11.91zM440.14,121.04l-1.48,-1.06c8.34,-13.07 16.79,-33.74 21.65,-53.66l11.29,3.37c-0.42,1.27 -1.69,2.21 -4.12,2.11c-2.63,7.8 -5.8,15.5 -9.39,22.56l4.75,1.79c-0.42,0.85 -1.48,1.59 -3.27,1.9v62.31c-0.21,0.64 -3.07,2.22 -5.7,2.22h-1.38v-58.1c-3.9,6.22 -7.91,11.92 -12.35,16.56zM474.24,162.89v-78.54l10.66,1.16c-0.31,1.58 -1.16,2.63 -3.9,3.05v71.91c0,0.95 -2.85,2.42 -5.49,2.42zM477.94,68.85l1.16,-0.74c20.69,9.49 15.09,23.83 8.34,18.66c-1.16,-5.69 -5.91,-13.28 -9.5,-17.92zM527.24,73.17l8.76,6.54c-0.63,0.95 -2.43,1.79 -4.54,2.21v70.64c0,5.59 -1.27,9.17 -11.51,10.23c-0.31,-2.22 -0.95,-4.01 -2.53,-4.96c-1.8,-1.26 -4.86,-2.11 -10.03,-2.84v-1.69c0,0 12.25,0.95 14.57,0.95c2.22,0 2.85,-0.63 2.85,-2.43v-71.27h-27.34l-0.95,-3.06h27.23z"></path></g><defs><filter id="filter_1" x="-4" y="-6" width="664" height="241" filterUnits="userSpaceOnUse" color-interpolation-filters="sRGB"><feFlood flood-opacity="0" result="feFloodId"/>
          <feColorMatrix in="SourceAlpha" type="matrix" values="0 0 0 0 0 0 0 0 0 0 0 0 0 0 0 0 0 0 127 0" result="hardAlpha"/>
          
          <feOffset dx="0" dy="2"/>
          <feComposite in2="hardAlpha" operator="out"/>
          <feGaussianBlur stdDeviation="2"/>
          <feColorMatrix type="matrix" values="0 0 0 0 0 0 0 0 0 0 0 0 0 0 0 0 0 0 0.25 0"/>
          <feBlend mode="normal" in2="filter_feFlood" result="filter_feFlood_1"/>
          <feBlend mode="normal" in="SourceGraphic" in2="filter_1" result="shape"/></filter><filter id="filter_2" x="-4" y="-4" width="664" height="237" filterUnits="userSpaceOnUse" color-interpolation-filters="sRGB"><feFlood flood-opacity="0" result="BackgroundImageFix"/>
          <feGaussianBlur in="BackgroundImage" stdDeviation="2"/>
          <feComposite in2="SourceAlpha" operator="in" result="effect1_backgroundBlur"/>
          <feBlend mode="normal" in="SourceGraphic" in2="effect1_backgroundBlur" result="shape"/></filter></defs></svg>