<svg xmlns="http://www.w3.org/2000/svg" xmlns:xlink="http://www.w3.org/1999/xlink" width="292.0400085449219" height="170.28799438476562" viewBox="0 0 292.0400085449219 170.28799438476562" fill="none"><g opacity="1"  transform="translate(4 2)  rotate(0)"><g id="文本 1" filter="url(#filter_1)"><path id="文本 1" fill-rule="evenodd" style="fill:#5C004D" opacity="1" d="M23.33,100.008c21.17,9.79 18.65,21.96 12.89,18.36c-1.95,-5.33 -8.28,-12.17 -13.68,-16.92c-3.03,5.33 -7.42,11.52 -12.75,17.06l4.18,1.88h14.4l2.52,-2.6l5.18,4.18c-0.43,0.58 -1.15,0.86 -2.59,1.08c0,11.81 -0.43,16.99 -2.45,18.86c-1.44,1.3 -3.6,1.95 -5.9,1.88c0,-1.16 -0.22,-2.31 -1.08,-2.96c-0.87,-0.64 -3.1,-1.22 -5.11,-1.51l0.07,-1.22c2.16,0.14 5.9,0.43 7.05,0.43c1.08,0 1.52,-0.14 1.95,-0.58c0.86,-0.93 1.01,-5.83 1.08,-15.4h-15.99v30.38c0,1.44 0.44,1.87 3.75,1.87h8.21c3.96,0 6.69,0 7.84,-0.14c0.94,-0.07 1.3,-0.36 1.59,-1.08c0.5,-1.37 1.44,-6.05 2.3,-11.16h1.01l0.22,11.59c1.65,0.58 2.08,1.15 2.08,2.09c0,2.23 -2.52,3.02 -15.12,3.02h-8.85c-6.12,0 -7.56,-1.22 -7.56,-5.18v-34.2c-2.45,2.45 -4.97,4.75 -7.78,6.62l-0.79,-0.79c8.42,-7.99 15.77,-20.45 19.15,-29.52l6.91,3.17c-0.43,0.79 -1,1.15 -2.73,0.79zM48.89,107.928v35.78c0,0.51 -1.95,1.59 -3.53,1.59h-0.86v-40.11l6.98,0.87c-0.14,0.93 -0.79,1.65 -2.59,1.87zM58.61,96.048l7.13,0.86c-0.15,1.01 -0.87,1.73 -2.6,1.95v56.23c0,3.96 -0.79,6.19 -7.27,6.91c-0.14,-1.44 -0.5,-2.73 -1.51,-3.38c-0.94,-0.87 -2.74,-1.44 -5.83,-1.87v-1.16c0,0 6.98,0.58 8.42,0.58c1.3,0 1.66,-0.36 1.66,-1.51zM83.02,144.218l1.22,0.07c1.37,7.7 -2.16,12.6 -4.97,14.4c-1.8,1.22 -4.17,1.44 -5.04,0c-0.5,-1.37 0.36,-2.74 1.73,-3.6c3.1,-1.51 6.62,-5.83 7.06,-10.87zM90,123.698v6.12h32.26v-6.12zM122.26,138.098v-6.19h-32.26v6.19zM122.26,140.188h-32.26v1.36c0,0.44 -2.02,1.44 -3.89,1.44h-0.72v-23.61l5.04,2.23h31.11l2.66,-2.88l5.76,4.46c-0.43,0.58 -1.58,1.16 -3.1,1.44v16.28c-0.07,0.5 -2.3,1.58 -3.88,1.58h-0.72zM102.1,142.268l0.79,-0.57c13.75,4.1 10.73,13.68 6.26,10.65c-0.57,-3.6 -4.03,-7.77 -7.05,-10.08zM123.05,147.748l0.21,7.77c1.59,0.51 2.09,1.08 2.09,1.95c0,2.16 -2.37,2.88 -16.34,2.88h-10.23c-6.48,0 -7.63,-0.87 -7.63,-4.4v-12.31l6.63,0.79c-0.15,0.8 -0.8,1.52 -2.16,1.66v9c0,1.01 0.28,1.22 3.67,1.22h9.86c4.47,0 7.99,-0.07 9.22,-0.14c1.01,-0.07 1.29,-0.22 1.58,-0.94c0.65,-1.15 1.37,-3.96 2.16,-7.48zM124.99,144.508l0.79,-0.58c16.06,5.83 12.6,16.49 7.78,13.1c-0.86,-4.24 -4.97,-9.43 -8.57,-12.52zM128.81,114.838l3.45,-4.32c0,0 4.04,3.03 6.48,5.33c-0.21,0.79 -0.79,1.15 -1.87,1.15h-62.06l-0.65,-2.16h38.16c1.44,-2.88 3.17,-6.84 4.18,-9.79h-36.58l-0.58,-2.16h26.86c-1.3,-2.59 -4.54,-5.33 -7.27,-6.84l0.65,-0.72c10.15,0.5 11.66,5.69 9.86,7.56h14.33l3.53,-4.25c0,0 3.96,3.03 6.33,5.26c-0.21,0.79 -0.86,1.15 -1.8,1.15h-14.83l6.84,2.3c-0.29,0.8 -1.22,1.3 -2.74,1.23c-1.72,1.87 -4.24,4.25 -6.69,6.26zM91.08,105.768l0.79,-0.43c12.24,3.17 7.99,11.88 3.67,8.64c-0.43,-2.74 -2.59,-6.19 -4.46,-8.21zM200.88,153.938l3.74,-4.68c0,0 4.25,3.31 6.84,5.69c-0.21,0.79 -0.79,1.15 -1.87,1.15h-63.65l-0.57,-2.16h30.31v-45h-24.77l-0.65,-2.16h45.8l3.74,-4.68c0,0 4.32,3.31 6.91,5.69c-0.21,0.79 -1.01,1.15 -1.94,1.15h-24.12v45zM253.8,96.908l0.72,-0.64c14.98,4.75 11.3,15.33 6.41,11.8c-0.65,-3.81 -4.11,-8.49 -7.13,-11.16zM244.01,138.238l0.29,1.08c-5.33,2.67 -12.96,6.41 -23.26,10.95c-0.22,0.86 -0.79,1.51 -1.51,1.72l-3.17,-6.19c2.16,-0.5 6.05,-1.44 10.58,-2.73v-24.2h-9.21l-0.58,-2.16h9.79v-18.93l7.28,0.79c-0.22,1.01 -0.8,1.73 -2.67,1.94v16.2h2.67l3.02,-4.17c0,0 3.46,2.95 5.47,5.18c-0.21,0.79 -0.86,1.15 -1.8,1.15h-9.36v22.9c3.89,-1.01 8.21,-2.23 12.46,-3.53zM274.82,110.378l3.32,-4.25c0,0 3.6,2.95 5.9,5.26c-0.22,0.79 -0.86,1.15 -1.94,1.15h-24.84c-0.22,4.17 -0.51,8.21 -0.94,11.95h15.19l2.88,-2.95l5.55,4.61c-0.51,0.5 -1.44,0.86 -2.96,1.08c-0.64,18.5 -2.3,28.72 -5.47,31.82c-1.94,1.87 -4.46,2.66 -7.49,2.66c0,-1.44 -0.21,-2.8 -1.08,-3.52c-1.08,-0.72 -3.67,-1.44 -6.12,-1.88l0.08,-1.22c2.66,0.22 7.2,0.65 8.64,0.65c1.29,0 1.94,-0.15 2.66,-0.87c2.02,-1.94 3.38,-11.88 4.03,-28.29h-16.2c-2.16,15.48 -7.77,27.14 -22.97,35.71l-0.72,-0.86c15.92,-12.39 19.3,-27.87 19.66,-48.89h-12.82l-0.57,-2.16z"></path></g><g id="文本 1" filter="url(#filter_2)"><path id="文本 1" fill-rule="evenodd" style="fill:#030057" opacity="1" d="M48.674,50.04c13.32,0 20.37,-8.71 20.37,-23.26c0,-15.19 -7.05,-23.32 -19.58,-23.32h-7.34c-0.22,6.91 -0.22,14.11 -0.22,21.45v2.59c0,8.14 0,15.41 0.22,22.54zM28.224,0.5h22.39c15.27,0 25.35,9.29 25.35,26.28c0,16.64 -11.02,26.21 -26.64,26.21h-21.1v-2.59l7.49,-0.79c0.21,-6.84 0.21,-13.97 0.21,-22.11v-2.59c0,-7.13 0,-14.18 -0.21,-21.09l-7.49,-0.8zM112.534,32.33l-8.28,-24.91l-8.21,24.91zM124.704,49.68l6.48,0.72v2.59h-20.81v-2.59l7.92,-0.79l-4.75,-14.33h-18.5l-4.68,14.18l7.56,0.94v2.59h-17.28v-2.59l6.48,-0.86l16.63,-49.54h4.03zM156.964,3.02l-7.49,0.8c-0.22,6.84 -0.22,13.82 -0.22,20.95v3.96c0,6.91 0,13.97 0.22,20.88l7.49,0.79v2.59h-21.39v-2.59l7.49,-0.79c0.22,-6.84 0.22,-13.83 0.22,-20.88v-3.96c0,-6.99 0,-14.04 -0.22,-20.95l-7.49,-0.8v-2.52h21.39zM227.444,3.02l-7.48,0.8c-0.15,6.84 -0.15,13.82 -0.15,20.95v3.96c0,6.98 0,13.97 0.15,20.95l7.48,0.72v2.59h-20.8v-2.59l7.05,-0.72c0.15,-6.91 0.07,-13.9 0.15,-20.74l0.07,-21.67l-18.15,45.72h-2.95l-18.86,-45.43c0.14,6.84 0.36,16.34 0.36,16.42v25.56l6.98,0.86v2.59h-17.35v-2.59l6.98,-0.86l0.08,-45.65l-7.28,-0.87v-2.52h13.4l18.36,44.64l17.71,-44.64h14.25zM256.324,3.02l-7.49,0.8c-0.22,6.84 -0.22,13.82 -0.22,20.95v3.96c0,6.91 0,13.97 0.22,20.88l7.49,0.79v2.59h-21.39v-2.59l7.49,-0.79c0.22,-6.84 0.22,-13.83 0.22,-20.88v-3.96c0,-6.99 0,-14.04 -0.22,-20.95l-7.49,-0.8v-2.52h21.39z"></path></g></g><defs><filter id="filter_1" x="-4" y="89.3280029296875" width="292.04" height="78.96000000000001" filterUnits="userSpaceOnUse" color-interpolation-filters="sRGB"><feFlood flood-opacity="0" result="feFloodId"/>
          <feColorMatrix in="SourceAlpha" type="matrix" values="0 0 0 0 0 0 0 0 0 0 0 0 0 0 0 0 0 0 127 0" result="hardAlpha"/>
          
          <feOffset dx="0" dy="2"/>
          <feComposite in2="hardAlpha" operator="out"/>
          <feGaussianBlur stdDeviation="2"/>
          <feColorMatrix type="matrix" values="0 0 0 0 0 0 0 0 0 0 0 0 0 0 0 0 0 0 0.25 0"/>
          <feBlend mode="normal" in2="filter_feFlood" result="filter_feFlood_1"/>
          <feBlend mode="normal" in="SourceGraphic" in2="filter_1" result="shape"/></filter><filter id="filter_2" x="24.2239990234375" y="-6" width="236.096" height="64.99199999999999" filterUnits="userSpaceOnUse" color-interpolation-filters="sRGB"><feFlood flood-opacity="0" result="feFloodId"/>
          <feColorMatrix in="SourceAlpha" type="matrix" values="0 0 0 0 0 0 0 0 0 0 0 0 0 0 0 0 0 0 127 0" result="hardAlpha"/>
          
          <feOffset dx="0" dy="2"/>
          <feComposite in2="hardAlpha" operator="out"/>
          <feGaussianBlur stdDeviation="2"/>
          <feColorMatrix type="matrix" values="0 0 0 0 0 0 0 0 0 0 0 0 0 0 0 0 0 0 0.25 0"/>
          <feBlend mode="normal" in2="filter_feFlood" result="filter_feFlood_1"/>
          <feBlend mode="normal" in="SourceGraphic" in2="filter_2" result="shape"/></filter></defs></svg>