<svg xmlns="http://www.w3.org/2000/svg" xmlns:xlink="http://www.w3.org/1999/xlink" width="1982.303955078125" height="178.75599670410156" viewBox="0 0 1982.303955078125 178.75599670410156" fill="none"><g opacity="1"  transform="translate(0 0)  rotate(0)"><path id="文本 1" fill-rule="evenodd" style="fill:#000000" opacity="1" d="M204.7,0.79l7.41,2.38c-0.29,0.79 -1.22,1.37 -2.81,1.29c-1.94,5.4 -4.24,10.59 -6.91,15.34l2.95,1.08c-0.21,0.65 -0.93,1.15 -2.23,1.37v42.84c-0.07,0.43 -1.94,1.58 -3.81,1.58h-0.87v-40.17c-2.81,4.24 -5.76,7.99 -8.93,11.08l-1,-0.72c6.19,-8.71 12.6,-22.39 16.2,-36.07zM253.73,34.85h-21.46v26.71h11.67l3.6,-4.39c0,0 3.88,3.09 6.33,5.4c-0.21,0.79 -0.86,1.15 -1.87,1.15h-43.06l-0.57,-2.16h19.15v-26.71h-20.16l-0.5,-2.09h20.66v-20.74c-5.9,1.08 -12.02,1.95 -17.93,2.52l-0.29,-1.29c12.32,-2.38 27.58,-7.13 35.36,-10.73l5.83,5.04c-0.65,0.65 -1.95,0.65 -3.75,0c-4.03,1.15 -9.07,2.38 -14.47,3.53v21.67h13.47l3.45,-4.46c0,0 3.96,3.16 6.34,5.47c-0.22,0.72 -0.87,1.08 -1.8,1.08zM276.55,0.79l7.49,2.38c-0.36,0.79 -1.3,1.44 -2.88,1.29c-2.02,5.55 -4.46,10.88 -7.2,15.77l2.81,1.08c-0.22,0.65 -0.87,1.01 -2.16,1.23v42.55c-0.07,0.43 -1.95,1.58 -3.82,1.58h-0.86v-39.96c-2.81,4.18 -5.83,7.85 -9,10.87l-1.01,-0.72c6.34,-8.64 12.89,-22.32 16.63,-36.07zM301.25,42.91v-18.57h-12.39v18.57zM305.71,25.42v23.47c-0.14,0.29 -2.37,1.15 -3.81,1.15h-0.65v-5.04h-12.39v4.9c0,0.43 -1.87,1.51 -3.67,1.51h-0.72v-31.32l4.75,2.16h11.24l2.52,-2.95l5.97,4.53c-0.43,0.58 -1.73,1.3 -3.24,1.59zM318.1,8.78l3.45,-4.46c0,0 4.03,3.1 6.41,5.47c-0.22,0.72 -0.86,1.08 -1.8,1.08h-5.69v48.82c0,3.74 -1.01,6.41 -8.28,7.05c-0.21,-1.36 -0.72,-2.59 -1.87,-3.24c-1.37,-0.79 -3.46,-1.36 -7.34,-1.8v-1.08c0,0 8.92,0.58 10.72,0.58c1.59,0 2.02,-0.5 2.02,-1.73v-48.6h-33.41l-0.57,-2.09zM361.58,2.3l7.56,0.87c-0.14,1.01 -0.64,1.65 -2.44,1.94c1.58,26.5 7.92,45.22 32.83,56.74l-0.15,0.79c-2.52,0.29 -4.32,1.3 -5.18,3.96c-19.3,-10.66 -25.78,-27.29 -28.08,-48.67c-1.37,17.28 -6.55,35.42 -32.11,48.74l-0.87,-1.22c28.59,-17.86 28.37,-41.19 28.44,-63.15zM426.38,23.98c2.67,-3.24 4.97,-6.63 7.06,-10.01h-10.15v10.01zM418.18,36.5l-0.87,0.72v8.72h15.63v-9.44zM432.94,57.89v-9.79h-15.63v9.79zM427.32,11.81l3.02,-3.96c0,0 2.45,1.87 4.54,3.74c1.58,-2.81 3.02,-5.69 4.18,-8.42l6.48,3.09c-0.51,0.87 -1.23,1.16 -3.03,0.8c-2.81,5.47 -6.62,11.3 -11.37,16.92h4.32l3.24,-4.11c0,0 3.74,2.88 5.97,5.11c-0.21,0.8 -0.86,1.16 -1.87,1.16h-13.54c-2.59,2.8 -5.4,5.61 -8.42,8.2h11.38l2.66,-2.8l5.62,4.39c-0.44,0.5 -1.66,1.15 -3.03,1.44v26.13c-0.07,0.44 -2.37,1.52 -3.81,1.52h-0.72v-4.97h-15.63v4.53c0,0.44 -1.44,1.59 -3.67,1.59h-0.72v-25.78c-2.66,1.8 -5.47,3.46 -8.42,4.97l-0.72,-1.01c3.16,-1.94 6.26,-4.17 9.14,-6.62v-5.33l4.1,1.73c2.74,-2.52 5.26,-5.26 7.56,-7.99h-19.36l-0.58,-2.16h14.11v-10.01h-11.3l-0.58,-2.16h11.88v-10.59l7.2,0.8c-0.14,1 -0.86,1.72 -2.66,1.94v7.85zM466.49,3.38l5.54,5.48c-0.57,0.64 -1.58,0.79 -3.31,0.79c-2.52,4.82 -7.34,13.75 -10.58,18.43c8.49,5.98 11.66,12.46 11.66,18.22c0,7.05 -2.81,10.44 -10.44,10.87c0,-1.59 -0.36,-3.1 -0.94,-3.67c-0.64,-0.51 -2.44,-0.94 -4.39,-1.08v-1.16h6.77c0.86,0 1.3,-0.07 2.02,-0.43c1.44,-0.79 2.16,-2.45 2.16,-5.4c0,-5.47 -2.31,-11.37 -8.64,-17.28c2.08,-4.68 5.25,-13.68 7.27,-19.73h-12.53v56.6c0,0.43 -1.51,1.72 -3.89,1.72h-0.65v-63.21l5.4,2.81h11.52zM507.67,42.12v-19.08h-17.64v19.08zM509.54,18.07l5.84,4.39c-0.51,0.58 -1.66,1.16 -3.03,1.44v24.34c-0.07,0.43 -2.45,1.58 -4.03,1.58h-0.65v-5.54h-17.64v6.77c0,0.43 -1.8,1.51 -3.74,1.51h-0.79v-33.84l4.89,2.23h16.63zM532.58,6.34l3.75,-4.61c0,0 4.17,3.17 6.69,5.61c-0.14,0.8 -0.79,1.16 -1.8,1.16h-9.5v50.76c0,3.81 -0.94,6.69 -8.64,7.41c-0.14,-1.51 -0.79,-2.81 -2.02,-3.45c-1.51,-0.87 -3.74,-1.52 -8.06,-2.02v-1.08c0,0 10.01,0.72 11.95,0.72c1.59,0 2.09,-0.58 2.09,-1.87v-50.47h-49.39l-0.58,-2.16zM571.68,5.11l0.86,-0.5c19.59,13.03 15.7,26.42 9.94,21.74c-1.3,-6.62 -6.7,-15.55 -10.8,-21.24zM585.07,39.02l0.58,1.01c-5.33,4.18 -14.26,11.38 -24.77,18.87c-0.36,1.22 -1.22,2.08 -1.87,2.37l-3.24,-6.33c2.23,-1.23 2.59,-1.59 2.59,-3.1v-47.02l7.49,0.87c-0.15,1.08 -0.94,1.73 -2.74,2.01v44.21c5.76,-3.24 13.83,-8.06 21.96,-12.89zM600.77,3.53l7.85,0.86c-0.22,1.08 -0.94,1.87 -2.74,2.09c-0.43,15.34 -1.08,27.5 -6.19,37.22c20.81,12.17 16.92,26.64 10.94,22.04c-1.08,-6.63 -6.62,-14.84 -11.73,-20.52c-5.33,9.07 -14.98,16.05 -32.69,21.74l-0.65,-1.37c33.26,-13.39 34.78,-30.38 35.21,-62.06zM684.79,35.35h-27.36c6.7,10.01 18.87,18.51 30.1,22.32l-0.15,0.65c-1.94,0.29 -3.67,1.73 -4.32,4.03c-10.8,-5.04 -20.88,-14.33 -26.78,-26.06v28.51c0,0.72 -2.02,1.94 -3.89,1.94h-0.93v-27.43c-7.06,9.87 -17.64,18.29 -30.1,23.98l-0.79,-1.15c11.52,-6.7 21.6,-16.78 27.5,-26.79h-26.06l-0.58,-2.09h30.03v-18.93h-25.92l-0.65,-2.09h26.57v-11.52l7.34,0.86c-0.14,1.01 -0.72,1.73 -2.52,2.02v8.64h17.06l3.6,-4.39c0,0 4.04,3.02 6.56,5.33c-0.15,0.79 -0.87,1.15 -1.88,1.15h-25.34v18.93h19.87l3.75,-4.6c0,0 4.17,3.16 6.76,5.54c-0.14,0.79 -0.86,1.15 -1.87,1.15zM633.02,16.2l0.8,-0.43c14.9,7.77 10.22,18.72 5.4,14.47c-0.29,-4.61 -3.46,-10.37 -6.2,-14.04zM662.76,31.82l-1.01,-0.72c2.45,-3.67 5.62,-9.64 7.85,-15.26l6.98,3.1c-0.36,0.72 -1.29,1.29 -2.66,1.08c-3.31,4.46 -7.49,8.92 -11.16,11.8zM696.67,75.24l-1.15,-1.8c5.54,-3.1 7.2,-7.34 7.49,-10.44c-2.95,-1.08 -6.48,-2.3 -6.48,-5.98c0,-2.3 1.73,-4.39 4.68,-4.39c3.38,0 5.33,2.88 5.33,6.77c0,5.33 -2.38,12.24 -9.87,15.84zM792.5,7.7v7.35h10.73v-7.35zM807.84,17.14v11.37h10.8v-11.37zM792.5,28.51h10.73v-11.37h-10.73zM777.31,28.51h10.66v-11.37h-10.66zM787.97,7.7h-21.67l-0.65,-2.08h55.08l3.45,-4.32c0,0 3.89,3.02 6.34,5.25c-0.22,0.79 -0.86,1.15 -1.87,1.15h-20.81v7.35h10.08l2.66,-2.88l5.76,4.39c-0.5,0.58 -1.65,1.22 -3.09,1.51v14.33c-0.07,0.36 -2.38,1.37 -3.89,1.37h-0.72v-3.17h-41.33v2.52c0,0.43 -2.01,1.51 -3.96,1.51h-0.65v-21.89l5.04,2.31h10.23zM792.94,41.83c-2.52,3.24 -5.33,6.7 -7.71,9.36c5.55,0.87 10.37,1.66 14.69,2.59c3.74,-3.24 6.48,-7.12 8.5,-11.95zM821.23,39.74l3.46,-4.24c0,0 3.81,2.95 6.26,5.18c-0.14,0.79 -0.86,1.15 -1.94,1.15h-14.91c-2.23,5.4 -5.11,9.65 -9,13.11c26.86,6.4 21.46,13.32 16.06,10.87c-4.9,-2.88 -11.59,-5.55 -19.8,-8.07c-7.99,5.19 -19.37,7.92 -36.07,9.29l-0.29,-1.37c13.61,-1.87 23.98,-4.6 31.39,-9.43c-5.4,-1.44 -11.3,-2.95 -17.64,-4.25c2.23,-2.37 5.4,-6.26 8.28,-10.15h-21.17l-0.57,-2.09h23.25c2.38,-3.24 4.4,-6.33 5.55,-8.35l7.13,2.38c-0.36,0.79 -1.16,1.37 -3.17,1.22c-0.94,1.37 -2.16,2.95 -3.46,4.75zM877.68,3.82l0.65,-0.65c15.62,2.81 13.1,13.32 8.06,10.44c-1.22,-3.46 -5.25,-7.56 -8.71,-9.79zM890.57,21.53l6.69,3.96c-0.5,0.65 -1.15,0.93 -2.73,0.57c-3.31,3.68 -8.93,8.72 -14.33,12.53c5.9,8.07 13.75,13.03 21.53,16.35l-0.22,0.79c-1.94,0.36 -3.45,1.94 -4.25,4.17c-11.23,-6.76 -20.16,-15.91 -24.91,-33.55v33.05c0,3.96 -0.86,6.48 -7.99,7.2c-0.22,-1.58 -0.72,-2.81 -1.8,-3.53c-1.22,-0.86 -3.24,-1.51 -6.84,-2.01v-1.16c0,0 8.35,0.72 10.01,0.72c1.44,0 1.87,-0.5 1.87,-1.72v-19.66c-5.4,4.39 -12.74,10.15 -22.18,17.06c-0.07,0.87 -0.43,1.66 -1.08,2.02l-4.82,-5.33c4.75,-2.23 16.27,-8.64 28.08,-15.55v-19.44h-28.51l-0.65,-2.16h29.16v-14.9l7.27,0.86c-0.14,1.01 -0.72,1.66 -2.52,1.94v12.1h19.8l3.46,-4.32c0,0 3.89,3.02 6.33,5.33c-0.14,0.79 -0.86,1.15 -1.87,1.15h-27.72v4.18c1.66,5.97 3.96,10.94 6.84,15.04c4.32,-4.75 8.93,-11.3 11.38,-15.69zM846.43,23.04l0.72,-0.58c17.5,6.84 13.68,18.36 8.35,14.48c-1.08,-4.54 -5.47,-10.44 -9.07,-13.9zM972.5,9.14h-23.97c-1.51,3.53 -3.31,7.06 -5.47,10.52l3.52,1.29c-0.28,0.65 -0.93,1.15 -2.23,1.37v43.06c0,0.28 -2.09,1.36 -3.81,1.36h-0.94v-41.76c-7.92,11.24 -18.43,21.53 -30.46,28.95l-0.79,-0.87c14.83,-11.3 28.15,-28.36 33.84,-43.92h-32.11l-0.65,-2.08h54.29l3.74,-4.68c0,0 4.32,3.24 7.06,5.61c-0.22,0.79 -0.94,1.15 -2.02,1.15zM947.88,27.86l0.72,-0.79c29.88,11.23 28.8,25.35 22.25,22.03c-3.89,-6.91 -15.05,-16.12 -22.97,-21.24zM1022.47,53.86v-8.43h-16.7v8.43zM1024.34,40.68l5.33,4.1c-0.36,0.51 -1.44,1.08 -2.66,1.3v11.81c-0.07,0.43 -2.31,1.51 -3.82,1.51h-0.72v-3.38h-16.7v2.88c0,0.43 -2.02,1.44 -3.75,1.44h-0.72v-19.23l4.83,2.16h15.69zM1037.02,35.5l2.37,-2.88l6.05,4.53c-0.43,0.51 -1.58,1.15 -3.02,1.37v21.74c0,3.68 -0.87,5.91 -7.42,6.56c-0.22,-1.44 -0.5,-2.6 -1.44,-3.24c-1.08,-0.72 -2.81,-1.37 -5.9,-1.73v-1.08c0,0 6.84,0.5 8.42,0.5c1.3,0 1.66,-0.5 1.66,-1.51v-22.18h-46.08v27.51c0,0.5 -2.02,1.58 -3.89,1.58h-0.79v-33.48l5.18,2.31zM1026.65,27.58v-8.36h-24.55v8.36zM1027.37,32.47h-0.72v-2.81h-24.55v1.8c0,0.36 -2.02,1.52 -3.89,1.52h-0.65v-18.15l4.9,2.23h23.47l2.59,-2.8l5.9,4.39c-0.5,0.57 -1.65,1.15 -3.09,1.44v10.94c-0.07,0.43 -2.45,1.44 -3.96,1.44zM1035.94,9.36l3.74,-4.54c0,0 4.18,3.17 6.77,5.55c-0.22,0.79 -0.94,1.15 -1.87,1.15h-61.85l-0.65,-2.16h31.97c-1.08,-3.1 -4.75,-6.77 -7.85,-8.71l0.65,-0.65c11.3,1.44 12.6,7.56 10.37,9.36zM1066.75,30.17c-2.66,0 -4.61,-2.09 -4.61,-4.47c0,-2.52 1.95,-4.53 4.61,-4.53c2.59,0 4.54,2.01 4.54,4.53c0,2.38 -1.95,4.47 -4.54,4.47zM1066.75,58.61c-2.66,0 -4.61,-2.09 -4.61,-4.47c0,-2.52 1.95,-4.53 4.61,-4.53c2.59,0 4.54,2.01 4.54,4.53c0,2.38 -1.95,4.47 -4.54,4.47zM1130.04,2.52l0.65,-0.65c15.77,2.38 12.96,13.11 7.63,10.23c-1.15,-3.39 -5.11,-7.42 -8.28,-9.58zM1124.71,18.29l0.65,-0.72c15.34,1.8 12.67,12.24 7.49,9.43c-1.23,-3.17 -4.97,-6.77 -8.14,-8.71zM1145.16,14.47l1.37,0.29c-3.24,8.86 -9.36,25.34 -10.44,28.8c-0.65,2.23 -1.15,4.39 -1.15,6.19c0.07,3.17 2.08,6.48 1.8,12.31c-0.15,3.1 -1.52,4.9 -4.04,4.9c-1.29,0 -2.08,-1.3 -2.23,-3.53c0.94,-7.41 0.58,-12.96 -1.01,-13.97c-1,-0.72 -2.01,-0.93 -3.6,-1.08v-1.58h3.24c0.87,0 1.16,0 1.88,-1.37c1.29,-2.59 1.29,-2.59 14.18,-30.96zM1153.73,41.54v17.28h26.71v-17.28zM1181.52,23.11l3.46,-4.46c0,0 4.03,3.17 6.4,5.4c-0.21,0.79 -0.79,1.15 -1.8,1.15h-20.01v14.33h10.15l2.66,-2.95l5.84,4.46c-0.51,0.58 -1.66,1.15 -3.1,1.44v22.1c-0.07,0.51 -2.38,1.66 -3.96,1.66h-0.72v-5.33h-26.71v4.03c0,0.51 -1.95,1.59 -3.89,1.59h-0.72v-29.31l5.04,2.31h10.66v-14.33h-19.73l-0.58,-2.09h20.31v-13.03c-6.05,0.79 -12.46,1.44 -18.58,1.73l-0.29,-1.3c12.75,-1.73 28.3,-5.76 36.43,-9l5.62,5.19c-0.72,0.57 -2.09,0.64 -3.82,-0.08c-4.1,0.94 -9.14,1.95 -14.61,2.74v13.75zM1206,22.82h12.89v-14.9h-12.89zM1226.02,51.84l0.28,1.01c-5.9,2.88 -13.96,6.48 -24.69,10.29c-0.22,0.94 -0.87,1.59 -1.51,1.8l-3.03,-6.19c1.01,-0.14 2.31,-0.43 3.82,-0.72v-24.69l6.12,0.64c-0.15,0.8 -0.72,1.37 -2.09,1.59v21.53c1.73,-0.36 3.53,-0.8 5.47,-1.3v-30.82h-4.39v1.88c0,0.43 -1.44,1.51 -3.67,1.51h-0.65v-25.13l5.18,2.59h11.31l2.45,-2.81l5.54,4.32c-0.43,0.58 -1.58,1.08 -2.95,1.37v17.28c-0.07,0.36 -2.23,1.3 -3.67,1.3h-0.65v-2.31h-4.25v13.18h3.31l2.95,-4.03c0,0 3.39,2.88 5.33,5.04c-0.21,0.79 -0.79,1.15 -1.8,1.15h-9.79v14.54c3.74,-0.93 7.56,-1.94 11.38,-3.02zM1261.8,31.75h-17.21c2.81,14.11 9.87,24.63 19.73,29.74l-0.14,0.79c-2.09,0.72 -3.39,2.23 -3.82,4.25c-8.57,-5.91 -14.11,-16.99 -16.85,-30.89c-2.09,13.39 -7.92,23.47 -24.12,31.03l-1.01,-1.29c15.05,-8.5 19.59,-19.44 21.03,-33.63h-14.62l-0.57,-2.16h15.4c0.51,-5.97 0.44,-12.53 0.51,-19.65c-4.54,0.79 -9.29,1.44 -13.83,1.8l-0.28,-1.23c9.86,-2.01 21.96,-6.12 28.15,-9.14l5.76,5.18c-0.58,0.65 -1.87,0.72 -3.67,0c-3.1,0.87 -7.06,1.8 -11.31,2.59c-0.07,7.42 -0.14,14.26 -0.65,20.45h9.8l3.38,-4.32c0,0 3.82,3.03 6.19,5.33c-0.14,0.79 -0.86,1.15 -1.87,1.15zM1320.12,5.11l0.79,-0.57c13.54,4.75 9.51,13.6 5.19,10.29c-0.72,-3.17 -3.6,-7.27 -5.98,-9.72zM1280.52,1.37l0.79,-0.51c13.18,3.75 9.43,12.89 4.9,9.72c-0.65,-3.09 -3.46,-6.91 -5.69,-9.21zM1304.5,14.47h-34.92l-0.58,-2.16h27.79l3.39,-4.32c0,0 3.88,3.03 6.33,5.33c-0.21,0.79 -0.93,1.15 -2.01,1.15zM1275.84,42.19l6.55,2.16c-0.29,0.72 -1.08,1.37 -2.59,1.3c-2.52,5.76 -6.05,10.94 -10.01,14.18l-1.08,-0.65c2.88,-4.1 5.62,-10.44 7.13,-16.99zM1278.29,34.2h16.77v-11.23h-16.77zM1295.06,36.36h-6.12v23.54c0,3.68 -0.86,6.2 -6.69,6.92c-0.15,-1.37 -0.43,-2.67 -1.15,-3.39c-0.87,-0.79 -2.45,-1.37 -5.12,-1.65v-1.16c0,0 5.69,0.51 6.99,0.51c1.15,0 1.44,-0.43 1.44,-1.37v-23.4h-6.12v1.94c0,0.36 -1.87,1.44 -3.67,1.44h-0.72v-21.02l4.75,2.09h15.77l2.44,-2.59l5.48,4.1c-0.44,0.5 -1.52,1.15 -2.81,1.37v13.82c-0.07,0.43 -2.31,1.37 -3.82,1.37h-0.65zM1291.82,42.84l0.94,-0.5c13.32,6.55 8.86,16.05 4.54,12.31c-0.29,-3.89 -2.96,-8.86 -5.48,-11.81zM1334.02,48.53l0.21,11.73c1.51,0.58 1.8,1.23 1.8,2.09c0,1.87 -1.87,2.81 -9.36,2.81l-4.46,-0.07c-4.32,0 -5.19,-1.3 -5.19,-4.47v-37.36h-1.8c-0.86,18.07 -4.24,32.9 -19.8,43.63l-1,-1.23c12.6,-10.8 15.55,-24.98 16.27,-42.4h-7.42l-0.57,-2.16h8.06c0.14,-6.34 0.07,-13.04 0.07,-20.16l7.35,0.79c-0.22,1.08 -0.87,1.73 -2.6,2.01c-0.07,6.05 -0.07,11.81 -0.28,17.36h10.72l3.24,-4.18c0,0 3.89,2.95 6.27,5.18c-0.22,0.8 -0.87,1.16 -1.87,1.16h-12.17v0.79v35.35c0,1.15 0.14,1.51 1.87,1.51h3.31c1.59,0 2.81,0 3.31,-0.07c0.51,-0.07 0.8,-0.22 1.01,-0.94c0.51,-1.22 1.37,-6.76 2.09,-11.37zM1371.67,42.12v-19.08h-17.64v19.08zM1373.54,18.07l5.84,4.39c-0.51,0.58 -1.66,1.16 -3.03,1.44v24.34c-0.07,0.43 -2.45,1.58 -4.03,1.58h-0.65v-5.54h-17.64v6.77c0,0.43 -1.8,1.51 -3.74,1.51h-0.79v-33.84l4.89,2.23h16.63zM1396.58,6.34l3.75,-4.61c0,0 4.17,3.17 6.69,5.61c-0.14,0.8 -0.79,1.16 -1.8,1.16h-9.5v50.76c0,3.81 -0.94,6.69 -8.64,7.41c-0.14,-1.51 -0.79,-2.81 -2.02,-3.45c-1.51,-0.87 -3.74,-1.52 -8.06,-2.02v-1.08c0,0 10.01,0.72 11.95,0.72c1.59,0 2.09,-0.58 2.09,-1.87v-50.47h-49.39l-0.58,-2.16zM1435.68,5.11l0.86,-0.5c19.59,13.03 15.7,26.42 9.94,21.74c-1.3,-6.62 -6.7,-15.55 -10.8,-21.24zM1449.07,39.02l0.58,1.01c-5.33,4.18 -14.26,11.38 -24.77,18.87c-0.36,1.22 -1.22,2.08 -1.87,2.37l-3.24,-6.33c2.23,-1.23 2.59,-1.59 2.59,-3.1v-47.02l7.49,0.87c-0.15,1.08 -0.94,1.73 -2.74,2.01v44.21c5.76,-3.24 13.83,-8.06 21.96,-12.89zM1464.77,3.53l7.85,0.86c-0.22,1.08 -0.94,1.87 -2.74,2.09c-0.43,15.34 -1.08,27.5 -6.19,37.22c20.81,12.17 16.92,26.64 10.94,22.04c-1.08,-6.63 -6.62,-14.84 -11.73,-20.52c-5.33,9.07 -14.98,16.05 -32.69,21.74l-0.65,-1.37c33.26,-13.39 34.78,-30.38 35.21,-62.06zM1542.02,3.31l5.69,5.33c-0.65,0.5 -1.51,0.65 -3.17,0.72c-5.54,3.89 -14.04,9.29 -21.81,13.03h0.29c-0.22,1.01 -0.87,1.66 -2.45,1.87v35.14c0,3.96 -1.01,6.41 -9,7.27c-0.29,-1.58 -0.79,-2.73 -2.09,-3.45c-1.37,-0.87 -3.89,-1.52 -8.14,-2.02v-1.15c0,0 10.3,0.72 12.32,0.72c1.51,0 2.01,-0.51 2.01,-1.73v-37.37l4.97,0.51c5.9,-3.89 12.38,-9.36 16.56,-13.47h-46.51l-0.65,-2.16h48.53zM1572.05,61.06c-2.67,0 -4.54,-2.02 -4.54,-4.47c0,-2.45 1.87,-4.46 4.54,-4.46c2.66,0 4.53,2.01 4.53,4.46c0,2.45 -1.87,4.47 -4.53,4.47zM1572.05,5.11c2.52,0 3.96,1.44 3.96,4.83c0,4.03 -0.58,10.51 -1.8,23.4l-0.94,11.66h-2.45l-0.93,-11.66c-1.23,-12.96 -1.8,-19.37 -1.8,-23.33c0,-3.46 1.44,-4.9 3.96,-4.9zM1644.05,61.06c-2.67,0 -4.54,-2.02 -4.54,-4.47c0,-2.45 1.87,-4.46 4.54,-4.46c2.66,0 4.53,2.01 4.53,4.46c0,2.45 -1.87,4.47 -4.53,4.47zM1644.05,5.11c2.52,0 3.96,1.44 3.96,4.83c0,4.03 -0.58,10.51 -1.8,23.4l-0.94,11.66h-2.45l-0.93,-11.66c-1.23,-12.96 -1.8,-19.37 -1.8,-23.33c0,-3.46 1.44,-4.9 3.96,-4.9zM1716.05,61.06c-2.67,0 -4.54,-2.02 -4.54,-4.47c0,-2.45 1.87,-4.46 4.54,-4.46c2.66,0 4.53,2.01 4.53,4.46c0,2.45 -1.87,4.47 -4.53,4.47zM1716.05,5.11c2.52,0 3.96,1.44 3.96,4.83c0,4.03 -0.58,10.51 -1.8,23.4l-0.94,11.66h-2.45l-0.93,-11.66c-1.23,-12.96 -1.8,-19.37 -1.8,-23.33c0,-3.46 1.44,-4.9 3.96,-4.9zM1788.05,61.06c-2.67,0 -4.54,-2.02 -4.54,-4.47c0,-2.45 1.87,-4.46 4.54,-4.46c2.66,0 4.53,2.01 4.53,4.46c0,2.45 -1.87,4.47 -4.53,4.47zM1788.05,5.11c2.52,0 3.96,1.44 3.96,4.83c0,4.03 -0.58,10.51 -1.8,23.4l-0.94,11.66h-2.45l-0.93,-11.66c-1.23,-12.96 -1.8,-19.37 -1.8,-23.33c0,-3.46 1.44,-4.9 3.96,-4.9zM50.69,138.17h-16.27v10.37h16.27zM34.42,136.08h16.27v-9.86h-16.27zM57.38,136.08l3.32,-4.39c0,0 3.88,3.09 6.19,5.4c-0.22,0.72 -0.94,1.08 -1.87,1.08h-9.65v16.2c-0.07,0.5 -2.38,1.58 -3.96,1.58h-0.72v-5.4h-16.27v12.6c0,3.67 -1.16,6.41 -8.79,7.06c-0.14,-1.44 -0.79,-2.67 -1.94,-3.31c-1.37,-0.8 -3.82,-1.44 -8.07,-1.95v-1.15c0,0 9.94,0.72 11.88,0.72c1.66,0 2.16,-0.43 2.16,-1.66v-12.31h-21.88l-0.65,-2.01h22.53v-10.37h-29.08l-0.58,-2.09h29.66v-9.86h-17.35l-0.65,-2.09h19.37c2.45,-2.88 4.97,-7.13 6.7,-10.3h-16.78c-5.18,6.12 -12.09,12.03 -19.44,15.63l-0.79,-1.01c8.42,-5.55 16.63,-15.48 20.52,-24.41l7.34,2.23c-0.28,0.72 -0.93,1.01 -2.73,0.79c-0.94,1.52 -2.02,3.1 -3.24,4.68h15.41l3.16,-3.16l5.55,5.18c-0.58,0.36 -1.51,0.5 -2.95,0.65c-2.74,2.73 -6.84,6.98 -10.8,9.72h16.99l2.66,-2.88l5.76,4.46c-0.5,0.51 -1.65,1.08 -3.02,1.37v9zM83.88,153.14c3.89,-0.93 8.5,-1.94 13.25,-3.09v-9.79h-13.25zM83.88,112.46v11.67h13.25v-11.67zM83.88,138.17h13.25v-11.88h-13.25zM111.17,146.66l0.29,1.23c-2.88,1.08 -6.12,2.23 -9.72,3.53v17.13c0,0.43 -1.59,1.73 -3.89,1.73h-0.72v-17.21c-5.98,2.02 -12.89,4.32 -20.81,6.91c-0.29,0.87 -0.94,1.44 -1.66,1.66l-3.02,-6.05c1.87,-0.29 4.54,-0.79 7.7,-1.44v-41.69h-6.69l-0.58,-2.16h30.39l3.31,-4.17c0,0 3.89,2.95 6.26,5.18c-0.21,0.79 -0.93,1.15 -1.87,1.15h-8.42v36.51zM110.95,119.81c1.66,10.44 4.97,19.58 9.58,27.21c4.32,-8.42 7.2,-17.78 8.78,-27.21zM131.98,114.62l5.32,4.97c-0.57,0.65 -1.29,0.87 -2.88,1.01c-2.01,10.51 -5.47,21.02 -11.44,30.24c4.53,6.19 10,11.16 16.41,14.83l-0.21,0.79c-2.02,0.22 -3.82,1.37 -4.32,3.32c-5.69,-3.89 -10.52,-9.08 -14.33,-15.34c-4.47,5.9 -10.08,11.16 -17.43,15.34l-0.93,-1.01c6.77,-4.9 12.09,-11.09 16.27,-18c-4.61,-8.57 -7.7,-19.08 -9.22,-30.96h-4.89l-0.65,-2.09h25.27zM155.38,104.26l7.2,2.16c-0.22,0.86 -1.01,1.44 -2.67,1.44c-1.51,5.25 -3.38,10.51 -5.54,15.33l3.31,1.3c-0.22,0.65 -0.94,1.15 -2.16,1.22v42.91c-0.07,0.36 -1.94,1.52 -3.67,1.52h-0.79v-40.04c-2.09,3.89 -4.32,7.42 -6.7,10.44l-1.08,-0.64c4.82,-8.93 9.5,-22.61 12.1,-35.64zM177.7,157.54v-17.36h-11.31v17.36zM178.56,163.87h-0.86v-4.17h-11.31v5.32c0,0.44 -1.8,1.52 -3.67,1.52h-0.65v-30.6l4.68,2.16h2.88v-15.2h-10.87l-0.58,-2.08h11.45v-15.99l6.91,0.72c-0.14,1.01 -0.72,1.66 -2.37,1.87v13.4h4.61l3.09,-4.04c0,0 3.46,2.96 5.62,4.97c-0.22,0.79 -0.94,1.15 -1.8,1.15h-11.52v15.2h3.81l2.24,-2.52l4.53,4.1c-0.5,0.58 -1.51,1.08 -2.66,1.3v21.38c-0.15,0.36 -1.87,1.51 -3.53,1.51zM191.59,121.97c-0.5,1.22 -0.93,2.37 -1.51,3.53c1.08,7.56 2.74,14.61 5.4,20.88c2.81,-7.28 4.25,-15.41 4.82,-24.41zM209.16,121.97h-3.89c-1.08,11.23 -3.17,20.88 -7.56,29.09c3.24,5.97 7.56,10.94 13.25,14.61l-0.22,0.65c-2.16,0.43 -3.81,1.44 -4.53,3.74c-4.75,-4.03 -8.28,-9.14 -10.87,-15.04c-3.96,5.83 -9.29,10.87 -16.71,15.04l-0.72,-0.93c7.2,-5.4 12.24,-11.52 15.7,-18.51c-2.38,-6.84 -3.82,-14.54 -4.68,-22.68c-1.66,3.32 -3.53,6.27 -5.69,8.72l-1.08,-0.65c4.25,-8.07 7.49,-19.73 8.71,-31.75l7.42,1.58c-0.22,0.86 -1.01,1.58 -2.59,1.66c-0.87,4.32 -1.95,8.42 -3.32,12.31h9.65l3.17,-4.18c0,0 3.6,3.03 5.76,5.19c-0.22,0.79 -0.86,1.15 -1.8,1.15zM216.43,133.56h52.56l4.54,-5.98c0,0 5.25,4.25 8.42,7.28c-0.21,0.86 -1.01,1.15 -2.16,1.15h-62.64zM318.38,124.2l7.56,0.86c-0.21,1.01 -0.86,1.73 -2.66,1.95v41.69c0,0.64 -2.16,1.72 -3.96,1.72h-0.94zM321.62,108.65c-6.33,10.8 -19,23.54 -33.55,30.89l-0.5,-1.08c12.81,-8.5 25.41,-22.76 30.02,-34.2l8.28,2.16c-0.29,0.86 -1.01,1.22 -2.95,1.44c6.98,10 18.22,19.36 31.54,25.05l-0.08,1.08c-2.23,0.58 -3.6,2.23 -4.32,4.18c-12.52,-7.35 -22.75,-17.79 -28.44,-29.52zM404.78,124.63l3.17,-4.25c0,0 3.53,3.03 5.62,5.19c-0.15,0.79 -0.87,1.15 -1.87,1.15h-11.88v26.14c0,3.74 -0.8,5.97 -7.78,6.62c-0.14,-1.3 -0.65,-2.38 -1.66,-3.02c-1.15,-0.72 -3.16,-1.3 -6.62,-1.73v-1.15c0,0 8.14,0.57 9.65,0.57c1.44,0 1.87,-0.36 1.87,-1.51v-21.82c-4.82,9.08 -12.38,16.78 -21.82,22.4l-0.86,-1.08c8.64,-6.48 15.34,-15.84 19.37,-25.42h-18.58l-0.57,-2.09h22.46v-11.95l7.13,0.79c-0.22,1.01 -0.87,1.66 -2.59,1.87v9.29zM416.66,163.01v-52.35h-47.37v52.35zM418.68,105.48l5.76,4.61c-0.43,0.65 -1.66,1.15 -3.1,1.44v56.45c-0.07,0.43 -2.3,1.8 -3.96,1.8h-0.72v-4.68h-47.37v3.16c0,0.65 -1.73,1.95 -3.75,1.95h-0.86v-64.23l5.04,2.52h46.22zM433.94,149.83l-2.52,-6.55c0,0 1.44,-0.29 2.02,-0.72c4.18,-3.38 9.14,-9.5 13.18,-15.19c-3.24,0.93 -7.2,2.09 -11.38,3.17c-0.36,0.5 -0.79,0.93 -1.3,1.08l-2.66,-6.48c0,0 1.44,-0.36 1.87,-0.72c4.32,-4.18 9.79,-14.33 11.81,-19.73l6.91,3.24c-0.29,0.72 -1.15,1.29 -2.66,1.15c-3.03,4.97 -8.57,11.81 -13.61,16.49c3.31,-0.07 7.85,-0.29 12.46,-0.58c1.65,-2.52 3.02,-4.75 3.96,-6.69l6.4,4.1c-0.36,0.58 -1.36,1.08 -2.73,0.72c-4.18,5.9 -12.17,14.54 -19.44,20.38c5.11,-0.72 12.74,-1.73 20.52,-3.03l0.21,1.15c-4.46,1.52 -12.67,4.47 -21.74,7.13c-0.36,0.51 -0.79,0.87 -1.3,1.08zM435.17,166.03l-3.1,-6.41c4.83,-1 15.63,-3.96 26.28,-7.05l0.29,1.01c-5.18,2.73 -12.24,6.48 -21.89,10.65c-0.29,0.87 -0.86,1.51 -1.58,1.8zM488.09,162.65v-17.07h-21.89v17.07zM487.87,143.42l2.38,-2.73l5.18,4.03c-0.5,0.58 -1.22,0.94 -2.73,1.22v22.47c0,0.29 -1.8,1.29 -3.89,1.29h-0.72v-4.89h-21.89v3.96c0,0.43 -1.44,1.44 -3.74,1.44h-0.72v-28.95l5.32,2.16zM489.74,118.08l3.32,-4.1c0,0 3.74,2.88 6.12,5.11c-0.22,0.79 -1.01,1.15 -1.95,1.15h-17.49v13.03h7.84l3.24,-4.03c0,0 3.75,2.95 6.05,5.04c-0.21,0.79 -0.86,1.15 -1.8,1.15h-34.7l-0.58,-2.16h15.34v-13.03h-17.86l-0.57,-2.16h18.43v-13.75l7.2,0.79c-0.07,1.01 -0.87,1.73 -2.59,2.02v10.94zM529.27,132.7c2.45,7.63 6.55,13.89 11.95,18.79c4.61,-5.47 8,-11.81 10.23,-18.79zM554.47,127.58l5.26,4.97c-0.58,0.58 -1.37,0.79 -2.95,0.94c-2.81,7.7 -6.84,14.69 -12.53,20.59c7.2,5.54 16.34,9.22 26.93,11.3l-0.15,0.8c-2.16,0.28 -3.89,1.65 -4.68,4.03c-10.22,-2.81 -18.65,-7.06 -25.05,-13.25c-6.34,5.54 -14.48,10.01 -24.99,13.03l-0.65,-1.08c9.51,-3.53 17.14,-8.57 23.04,-14.61c-4.6,-5.26 -8.06,-11.74 -10.29,-19.66c-3.75,13.54 -10.59,26.28 -23.62,34.99l-0.93,-0.72c14.47,-12.02 20.3,-30.45 22.39,-49.1h-20.74l-0.65,-2.09h21.6c0.44,-4.46 0.65,-9 0.8,-13.39l8.42,0.43c-0.14,1.08 -0.72,1.73 -3.02,2.09c-0.29,3.53 -0.58,7.2 -1.01,10.87h27.65l3.67,-4.54c0,0 4.1,3.17 6.69,5.55c-0.14,0.79 -0.93,1.08 -1.94,1.08h-36.36c-0.5,3.6 -1.15,7.27 -2.02,10.87h21.96zM631.3,104.33l4.6,4.82c-0.72,0.51 -2.08,0.51 -3.74,-0.29c-13.46,1.66 -33.34,3.24 -50.83,3.32l-0.15,-1.44c17,-1.01 38.52,-3.82 50.12,-6.41zM601.63,112.61l0.87,-0.43c12.88,6.4 8.13,15.26 3.88,11.44c-0.21,-3.6 -2.66,-8.2 -4.75,-11.01zM586.44,113.98l0.79,-0.51c12.96,5.4 8.5,14.26 4.18,10.59c-0.43,-3.24 -2.88,-7.56 -4.97,-10.08zM634.1,127.66h-50.32c0.14,3.6 -0.94,6.55 -3.17,8.06c-3.31,2.45 -6.63,-1.37 -2.74,-4.25c1.44,-1.15 3.82,-4.53 3.96,-8.71h1.15c0.29,0.94 0.44,1.8 0.58,2.74h35.35c2.59,-4.11 5.26,-9.8 6.77,-14.19l7.13,2.23c-0.36,0.8 -1.23,1.37 -2.74,1.3c-2.16,3.31 -5.54,7.49 -9.07,10.66h12.74l3.03,-2.96l5.33,5.19c-0.58,0.57 -1.37,0.72 -2.74,0.79c-1.44,1.87 -4.18,5.4 -5.83,7.13l-1.01,-0.36c0.36,-1.87 1.08,-5.19 1.58,-7.63zM596.81,147.67c3.31,4.97 8.21,8.57 14.25,11.16c4.32,-2.95 7.92,-6.62 10.95,-11.3h-25.13zM625.61,142.63l5.33,4.68c-0.51,0.58 -1.52,0.79 -3.24,0.94c-3.39,5.11 -7.42,9.07 -12.17,12.24c7.41,2.37 16.13,3.6 25.92,4.03l-0.07,0.86c-2.16,0.44 -3.6,2.09 -4.04,4.32c-10.51,-1.15 -19.15,-3.09 -26.2,-6.62c-7.2,3.67 -16.06,5.9 -27.36,7.34l-0.44,-1.36c9.65,-1.95 17.64,-4.32 24.2,-8c-4.76,-3.02 -8.64,-6.91 -11.52,-11.95c-4.68,7.42 -11.09,13.97 -19.08,18.51l-0.87,-0.94c9.07,-6.26 15.84,-16.2 19.95,-27.22h-13.18l-0.65,-2.08h14.55c0.86,-2.81 1.65,-5.76 2.23,-8.72l7.56,1.66c-0.29,0.86 -0.87,1.15 -2.81,1.08c-0.5,2.02 -1.15,3.96 -1.94,5.98h23.97l3.31,-3.82c0,0 3.82,2.59 6.27,4.75c-0.22,0.79 -0.87,1.15 -1.87,1.15h-32.55c-0.86,2.02 -1.8,3.96 -2.81,5.91h24.63zM671.04,158.26v-19.01h-15.05v19.01zM655.99,119.16v18h15.05v-18zM672.98,114.05l5.62,4.53c-0.36,0.58 -1.58,1.16 -3.02,1.44v44.14c-0.08,0.5 -2.31,1.73 -3.82,1.73h-0.72v-5.55h-15.05v5.98c0,0.5 -1.73,1.66 -3.67,1.66h-0.79v-53.36l4.82,2.38h2.38c0.93,-3.67 2.09,-9 2.73,-12.74l7.56,1.8c-0.36,1 -1.22,1.58 -2.66,1.58c-1.44,2.66 -3.53,6.41 -5.26,9.36h9.22zM708.19,113.76l5.55,4.82c-0.51,0.58 -1.37,1.01 -2.96,1.16c-0.5,26.64 -1.8,42.62 -5.18,46.8c-2.02,2.44 -4.82,3.52 -8.35,3.52c0,-1.58 -0.29,-2.95 -1.3,-3.67c-1.15,-0.86 -4.25,-1.65 -7.2,-2.16l0.07,-1.29c3.24,0.36 8.43,0.79 10.16,0.79c1.51,0 2.01,-0.15 2.8,-0.94c2.67,-2.66 3.75,-19.08 4.25,-43.7h-17.57c-3.02,5.97 -6.62,11.23 -10.51,15.12l-1.08,-0.65c4.68,-7.06 9.15,-18.22 11.59,-29.3l7.35,2.23c-0.29,0.79 -1.08,1.51 -2.67,1.44c-1.08,3.09 -2.3,6.05 -3.6,9h15.7zM683.5,132.34l0.79,-0.51c17.28,7.85 13.1,19.51 7.92,15.41c-0.87,-4.9 -5.11,-11.09 -8.71,-14.9zM775.66,162.07l3.74,-4.68c0,0 4.25,3.31 6.84,5.69c-0.22,0.79 -0.79,1.15 -1.87,1.15h-63.65l-0.58,-2.16h30.32v-45h-24.77l-0.65,-2.16h45.79l3.75,-4.68c0,0 4.32,3.31 6.91,5.69c-0.22,0.79 -1.01,1.15 -1.95,1.15h-24.12v45zM809.5,104.26l7.27,2.59c-0.36,0.79 -1.15,1.37 -2.81,1.22c-2.23,5.69 -4.9,11.16 -7.92,16.13l3.17,1.15c-0.22,0.58 -0.94,1.08 -2.16,1.3v41.97c-0.15,0.36 -2.09,1.59 -3.82,1.59h-0.86v-40.32c-3.1,4.39 -6.48,8.28 -9.94,11.45l-1.01,-0.8c6.77,-8.56 13.83,-22.32 18.08,-36.28zM848.81,118.73l3.45,-4.39c0,0 3.96,3.09 6.41,5.32c-0.21,0.72 -0.93,1.08 -1.87,1.08h-21.67v12.96h11.09l3.24,-4.1c0,0 3.74,2.88 6.04,5.04c-0.21,0.79 -0.93,1.15 -1.94,1.15h-18.43v13.32h11.95l3.38,-4.32c0,0 3.89,3.03 6.34,5.26c-0.22,0.79 -0.94,1.15 -1.87,1.15h-19.8v17.5c0,0.28 -1.51,1.51 -4.03,1.51h-0.72v-49.47h-5.62c-3.96,6.56 -8.5,12.32 -13.39,16.49l-1.01,-0.79c6.05,-7.56 12.46,-19.73 16.27,-32.11l7.27,2.66c-0.28,0.79 -1.22,1.3 -2.8,1.23c-1.52,3.67 -3.32,7.2 -5.19,10.51zM891.29,104.62l0.72,-0.65c13.53,1.87 9.93,11.81 5.04,8.64c-0.58,-2.81 -3.31,-6.27 -5.76,-7.99zM921.67,115.85h-47.66c0.07,4.53 -1.8,7.49 -3.82,8.85c-1.65,1.23 -4.25,1.37 -5.04,-0.28c-0.65,-1.59 0.29,-2.96 1.73,-3.82c2.81,-1.51 5.26,-5.69 4.9,-10.15l1.22,-0.07c0.36,1.22 0.65,2.23 0.79,3.31h47.38l2.95,-3.1l5.54,5.33c-0.57,0.58 -1.36,0.72 -2.73,0.79c-1.3,2.23 -3.75,5.47 -5.76,7.35l-0.94,-0.58c0.51,-1.94 1.08,-5.18 1.44,-7.63zM875.81,145.73l-2.59,-6.34c0,0 1.44,-0.21 1.94,-0.5c5.69,-2.59 12.82,-8.86 16.56,-13.03h-17.71l-0.58,-2.09h37.66l3.17,-3.67c0,0 3.67,2.52 5.9,4.6c-0.07,0.8 -0.79,1.16 -1.8,1.16h-22.9l3.96,2.3c-0.36,0.5 -1.36,1.08 -2.88,0.72c-4.17,3.38 -11.16,7.78 -17.56,10.87c8.28,-0.14 21.45,-0.65 35.2,-1.29c-2.37,-2.74 -5.25,-5.33 -7.56,-7.2l0.8,-0.72c18.79,6.69 16.48,17.64 11.3,14.68c-0.65,-1.65 -1.87,-3.45 -3.31,-5.25c-9.22,1.15 -22.39,2.66 -37.73,3.89c-0.5,1 -1.22,1.65 -1.87,1.87zM919.58,165.46l3.53,-4.4c0,0 4.18,3.03 6.77,5.33c-0.22,0.79 -0.94,1.15 -1.94,1.15h-62.93l-0.65,-2.08h30.24v-10.88h-21.89l-0.57,-2.08h22.46v-9.87l7.2,0.72c-0.14,0.94 -0.72,1.59 -2.38,1.87v7.28h13.32l3.39,-4.18c0,0 3.96,2.88 6.41,5.11c-0.22,0.79 -0.94,1.15 -1.95,1.15h-21.17v10.88zM1053.65,137.59l-1.01,-0.72c4.32,-8.06 8.28,-20.37 10.3,-32.4l7.7,1.8c-0.22,0.87 -1.01,1.59 -2.66,1.59c-1.08,3.74 -2.31,7.48 -3.6,10.94h19.65l3.24,-3.17l5.69,5.47c-0.58,0.58 -1.44,0.65 -2.88,0.8c-2.23,3.31 -6.48,9 -9.29,12.24l-1.01,-0.51c1.3,-3.31 3.24,-8.93 4.47,-12.74h-20.74c-2.73,6.48 -6.05,12.31 -9.86,16.7zM1050.77,111.6l5.18,4.82c-0.5,0.65 -1.22,0.87 -2.73,1.08c-1.3,7.49 -3.17,15.27 -6.12,22.83c11.16,13.1 8.78,21.53 4.17,18.07c-1.01,-3.96 -3.38,-8.57 -6.33,-13.1c-4.18,8.85 -10.01,16.99 -18.29,23.47l-1.08,-0.87c7.34,-7.12 12.74,-16.56 16.49,-26.56c-4.32,-5.98 -9.44,-11.67 -13.68,-15.92l1.08,-0.72c5.97,4.18 10.65,8.21 14.25,11.96c2.16,-6.56 3.67,-13.32 4.61,-19.95h-21.38l-0.65,-2.16h21.6zM1072.94,128.3l-0.07,0.65c1.51,15.05 5.98,27.87 20.38,35.93l-0.22,0.86c-2.45,0.36 -4.03,1.44 -4.61,4.32c-10.65,-7.56 -14.54,-20.23 -16.2,-33.69c-1.51,12.38 -5.83,24.26 -22.89,34.05l-1.01,-1.29c17.78,-12.82 19.73,-27.58 20.16,-44.28l7.34,1.87c-0.28,0.86 -1.15,1.58 -2.88,1.58zM1139.33,109.51l5.11,2.23h10.51l2.31,-2.95l5.9,4.54c-0.43,0.57 -1.58,1.15 -3.02,1.44v29.52c0,3.6 -0.72,5.83 -6.7,6.48c-0.14,-1.44 -0.5,-2.67 -1.15,-3.31c-0.94,-0.72 -2.45,-1.3 -5.11,-1.66v-1.08c0,0 5.76,0.43 6.98,0.43c1.15,0 1.51,-0.43 1.51,-1.44v-29.81h-11.95v45.29c0,0.36 -1.44,1.44 -3.67,1.44h-0.72zM1136.81,142.42l0.29,1c-2.74,1.66 -7.92,4.9 -13.32,8.21c-0.44,1.15 -1.3,1.95 -1.95,2.23l-2.95,-6.12c2.02,-0.93 2.3,-1.36 2.3,-2.66v-35.28l5.19,1.08c2.66,-2.16 5.61,-4.75 7.49,-6.55l5.9,3.89c-0.36,0.57 -1.01,0.79 -2.59,0.5c-2.74,1.37 -7.71,3.38 -11.67,4.97v32.54c3.24,-1.08 7.28,-2.45 11.31,-3.81zM1101.24,105.91l0.86,-0.43c16.2,8.42 12.53,18.94 7.64,15.26c-1.3,-4.6 -5.33,-10.94 -8.5,-14.83zM1112.04,131.54v22.83c0.29,0.14 0.65,0.36 1.01,0.72c6.55,6.91 14.54,8.28 28.08,8.28c8.13,0 14.97,-0.07 23.4,-0.43v1c-2.16,0.44 -3.39,1.95 -3.67,4.04h-21.32c-13.75,0 -20.73,-2.52 -27.57,-10.8c-0.94,-1.16 -1.66,-1.01 -2.38,0c-1.58,2.16 -5.61,7.12 -7.99,10.51c0.29,0.65 0.14,1.22 -0.43,1.65l-4.25,-5.47c3.17,-2.16 7.85,-6.05 10.8,-8.28v-24.77h-9.65l-0.43,-2.16h9.07l2.74,-3.6l6.12,5.12c-0.43,0.5 -1.51,1.08 -3.53,1.36zM1233.79,138.82h-27.36c6.7,10 18.87,18.5 30.1,22.32l-0.15,0.64c-1.94,0.29 -3.67,1.73 -4.32,4.04c-10.8,-5.04 -20.88,-14.33 -26.78,-26.07v28.51c0,0.72 -2.02,1.95 -3.89,1.95h-0.93v-27.43c-7.06,9.86 -17.64,18.28 -30.1,23.97l-0.79,-1.15c11.52,-6.7 21.6,-16.78 27.5,-26.78h-26.06l-0.58,-2.09h30.03v-18.94h-25.92l-0.65,-2.09h26.57v-11.52l7.34,0.87c-0.14,1.01 -0.72,1.73 -2.52,2.01v8.64h17.06l3.6,-4.39c0,0 4.04,3.03 6.56,5.33c-0.15,0.79 -0.87,1.15 -1.88,1.15h-25.34v18.94h19.87l3.75,-4.61c0,0 4.17,3.17 6.76,5.54c-0.14,0.8 -0.86,1.16 -1.87,1.16zM1182.02,119.66l0.8,-0.43c14.9,7.78 10.22,18.72 5.4,14.47c-0.29,-4.6 -3.46,-10.36 -6.2,-14.04zM1211.76,135.29l-1.01,-0.72c2.45,-3.67 5.62,-9.65 7.85,-15.27l6.98,3.1c-0.36,0.72 -1.29,1.3 -2.66,1.08c-3.31,4.46 -7.49,8.93 -11.16,11.81zM1258.63,120.38l2.88,-3.88c0,0 3.39,2.8 5.33,4.89c-0.22,0.79 -0.94,1.15 -1.87,1.15h-8.43v13.68c2.96,-1.22 6.2,-2.52 9.36,-3.81l0.36,1.01c-2.59,1.58 -5.9,3.6 -9.72,5.9v23.76c0,4.03 -0.72,6.41 -7.2,7.13c-0.21,-1.59 -0.5,-2.88 -1.44,-3.6c-0.93,-0.94 -2.66,-1.51 -5.61,-1.95v-1.15c0,0 6.69,0.51 7.99,0.51c1.3,0 1.66,-0.36 1.66,-1.44v-20.52c-2.02,1.15 -4.18,2.37 -6.48,3.67c-0.15,0.86 -0.72,1.51 -1.44,1.8l-2.6,-5.76c2.09,-0.65 5.91,-2.02 10.52,-3.82v-15.41h-9.65l-0.58,-2.16h10.23v-16.2l7.27,0.87c-0.22,1.01 -0.94,1.73 -2.67,1.94v13.39zM1278.5,135.14c2.16,7.28 5.76,13.54 10.52,18.72c3.45,-5.68 5.68,-12.02 7.05,-18.72zM1298.66,130.18l5.12,4.6c-0.58,0.65 -1.23,0.8 -2.81,0.94c-1.87,7.49 -4.61,14.62 -9.29,20.81c4.46,4.17 9.79,7.34 15.7,9.65l-0.22,0.72c-1.94,0.14 -3.53,1.29 -4.32,3.38c-5.33,-2.66 -10.01,-6.19 -13.82,-10.51c-3.89,4.25 -8.72,7.92 -14.84,10.73l-0.72,-1.08c5.55,-3.32 10.01,-7.49 13.4,-12.24c-4.61,-5.98 -7.92,-13.25 -9.94,-22.04h-3.89v33.56c0,0.43 -1.58,1.65 -3.89,1.65h-0.72v-64.65l5.48,2.66h21.09l2.52,-2.59l5.11,4.17c-0.43,0.51 -1.29,0.8 -2.73,1.01c-0.43,9 -1.59,14.26 -3.89,16.13c-1.58,1.15 -3.96,1.73 -6.48,1.73c0,-1.15 -0.29,-2.16 -1.22,-2.81c-1.01,-0.72 -3.6,-1.22 -5.91,-1.58l0.07,-1.23c2.52,0.22 7.2,0.58 8.57,0.58c1.08,0 1.66,-0.15 2.23,-0.51c1.16,-1.08 1.88,-5.54 2.31,-12.74h-22.54v22.46h22.83zM1369.44,162.58v-17.5h-30.53v17.5zM1371.38,140.04l5.91,4.54c-0.43,0.57 -1.59,1.22 -3.1,1.51v22.25c-0.07,0.43 -2.37,1.65 -4.03,1.65h-0.72v-5.33h-30.53v3.96c0,0.44 -1.58,1.73 -3.89,1.73h-0.86v-24.19c-6.05,2.66 -12.6,5.04 -19.73,6.84l-0.65,-1.22c21.96,-7.28 40.54,-20.38 50.04,-36.08h-24.19c-1.44,1.8 -3.02,3.53 -4.61,5.33c14.91,6.55 11.31,16.27 6.56,12.82c-0.94,-3.75 -4.61,-8.35 -7.71,-11.59c-5.4,5.54 -11.66,10.72 -18,14.25l-0.86,-0.93c10.08,-7.28 20.52,-20.31 25.77,-31.32l7.49,2.37c-0.29,0.79 -0.86,1.08 -2.73,0.87c-1.23,2.01 -2.74,4.03 -4.25,6.12h22.82l3.53,-3.17l5.33,5.25c-0.58,0.65 -1.37,0.8 -3.31,0.94c-6.7,10.37 -16.49,19.44 -29.24,26.35h28.23zM1389.67,178.7l-1.15,-1.8c5.54,-3.09 7.2,-7.34 7.49,-10.44c-2.95,-1.08 -6.48,-2.3 -6.48,-5.97c0,-2.31 1.73,-4.39 4.68,-4.39c3.38,0 5.33,2.88 5.33,6.76c0,5.33 -2.38,12.24 -9.87,15.84zM1519.49,115.27h-44.21c-4.1,5.98 -9,10.95 -14.18,14.26l-0.94,-0.79c5.69,-5.55 11.52,-14.84 15.05,-24.84l7.05,2.88c-0.36,0.79 -1.22,1.36 -2.73,1.15c-0.94,1.87 -1.87,3.53 -2.95,5.25h34.77l3.6,-4.32c0,0 3.82,2.88 6.41,5.26c-0.14,0.79 -0.86,1.15 -1.87,1.15zM1483.92,127.66l0.65,-0.8c16.05,2.38 14.33,11.96 9.5,9.72c-1.73,-3.16 -6.48,-6.91 -10.15,-8.92zM1482.26,144.29l0.65,-0.79c16.71,2.37 15.05,12.52 9.94,10.22c-1.8,-3.38 -6.77,-7.42 -10.59,-9.43zM1505.59,155.88c0.72,-3.74 1.23,-8.71 1.73,-14.83h-32.33c-0.93,5.33 -1.87,10.58 -2.73,14.83zM1477.44,124.7c-0.58,4.04 -1.37,9.08 -2.16,14.26h32.11c0.29,-4.25 0.58,-9.07 0.72,-14.26zM1522.08,141.05h-10.08c-0.43,5.9 -1.01,10.87 -1.66,14.83h2.88l3.17,-4.1c0,0 3.67,2.88 5.83,5.11c-0.21,0.79 -0.79,1.15 -1.8,1.15h-10.36c-0.94,4.54 -2.02,7.56 -3.39,9.07c-2.01,2.16 -4.89,3.1 -8.13,3.1c0,-1.44 -0.22,-2.67 -1.23,-3.39c-1.01,-0.79 -3.89,-1.51 -6.48,-1.94v-1.37c2.95,0.36 7.85,0.79 9.36,0.79c1.44,0 2.02,-0.21 2.88,-1c0.79,-0.72 1.51,-2.52 2.09,-5.26h-32.69l-2.37,2.59l-5.26,-4.03c0.72,-0.5 1.87,-1.01 2.88,-1.37c0.86,-3.74 1.8,-8.85 2.59,-14.18h-11.59l-0.65,-2.09h12.53c1.15,-7.06 2.09,-14.26 2.52,-19.22l5.9,2.88h28.37l2.81,-3.1l5.47,4.68c-0.43,0.58 -1.37,0.94 -2.95,1.15c-0.14,4.97 -0.36,9.51 -0.58,13.61h2.74l3.17,-4.18c0,0 3.67,2.96 5.9,5.12c-0.14,0.79 -0.86,1.15 -1.87,1.15zM1572.55,132.34l3.1,-3.75c0,0 3.38,2.74 5.61,4.68c-0.21,0.79 -0.93,1.15 -1.87,1.15h-32.69l-0.57,-2.08h14.18v-8.64h-12.09l-0.58,-2.09h12.67v-7.78l6.55,0.65c-0.14,0.86 -0.64,1.44 -2.01,1.66v5.47h6.48l2.81,-3.31c0,0 3.38,2.37 5.4,4.24c-0.22,0.8 -0.87,1.16 -1.8,1.16h-12.89v8.64zM1571.54,154.8v-11.45h-16.63v11.45zM1576.01,143.86v15.4c-0.07,0.51 -2.38,1.59 -3.89,1.59h-0.58v-3.96h-16.63v4.03c0,0.36 -1.87,1.37 -3.74,1.37h-0.65v-23.26l4.75,2.23h15.7l2.3,-2.59l5.26,4.03c-0.43,0.51 -1.37,0.94 -2.52,1.16zM1586.3,106.42l6.63,4.96c-0.58,0.72 -2.02,1.37 -3.67,1.66v50.04c0,3.82 -0.8,6.26 -7.64,6.91c-0.21,-1.51 -0.72,-2.73 -1.65,-3.45c-1.08,-0.8 -2.95,-1.44 -6.27,-1.88v-1.15c0,0 7.49,0.58 9.08,0.58c1.36,0 1.72,-0.43 1.72,-1.66v-50.61h-41.32v18.93c0,12.75 -0.87,28.59 -12.32,39.39l-1,-0.8c7.77,-10.94 8.71,-24.91 8.71,-38.52v-23.54l5.47,2.38h39.67zM1603.01,123.19h53.21l4.03,-5.25c0,0 4.61,3.67 7.49,6.26c-0.22,0.79 -0.94,1.15 -1.95,1.15h-62.21zM1626.05,104.62c19.8,6.69 15.84,19.8 9.93,15.62c-1.08,-5.04 -6.26,-11.38 -10.65,-15.05zM1623.1,132.55l7.92,2.88c-0.44,0.79 -1.01,1.08 -2.81,0.79c-4.97,10.88 -14.62,24.56 -24.99,32.33l-0.93,-0.72c8.42,-8.49 16.77,-23.25 20.81,-35.28zM1644.19,133.2c27.36,21.82 24.99,38.45 18.58,33.34c-2.45,-9.87 -12.39,-24.05 -19.73,-32.76zM1737.86,133.85h-28.72c2.73,11.66 10.51,23.76 31.68,31.75l-0.15,0.86c-2.59,0.22 -4.32,1.08 -4.89,3.82c-19.95,-9.29 -25.85,-23.9 -28.08,-36.43c-2.24,15.69 -9.36,27.79 -33.27,36.5l-0.79,-1.29c20.74,-9 27,-20.67 28.94,-35.21h-26.49l-0.58,-2.09h27.36c0.65,-5.76 0.65,-11.95 0.72,-18.58h-23.11l-0.65,-2.16h45.29l3.67,-4.53c0,0 4.11,3.17 6.77,5.54c-0.22,0.79 -1.01,1.15 -2.02,1.15h-24.62c-0.14,6.7 -0.29,12.89 -0.94,18.58h21.39l3.67,-4.61c0,0 4.18,3.17 6.84,5.55c-0.22,0.79 -1.01,1.15 -2.02,1.15zM1786.32,151.13l0.86,-0.58c22.68,10.01 20.16,22.32 14.12,18.79c-0.87,-1.87 -2.24,-3.88 -3.82,-6.04c-9.5,1.44 -23.54,3.24 -39.74,4.89c-0.44,0.65 -1.01,1.08 -1.52,1.3l-2.37,-6.27c0,0 1.29,-0.28 1.94,-0.57c6.77,-3.89 15.7,-13.47 19.08,-18.65l6.84,3.89c-0.36,0.65 -1.37,1.22 -2.81,0.93c-4.46,4.32 -12.45,10.52 -19.72,14.69c8.42,-0.21 22.32,-0.93 37.22,-1.65c-3.17,-3.89 -6.98,-7.92 -10.08,-10.73zM1798.34,141.62l3.68,-4.53c0,0 4.1,3.09 6.76,5.47c-0.21,0.79 -1,1.15 -2.01,1.15h-57.24l-0.65,-2.09zM1786.97,128.81l3.53,-4.25c0,0 3.96,2.95 6.4,5.26c-0.14,0.79 -0.86,1.15 -1.87,1.15h-33.84l-0.5,-2.16zM1776.38,103.9l8.21,1.94c-0.21,0.86 -1.08,1.22 -2.88,1.37c6.48,8.57 18.43,16.13 31.03,21.02l-0.14,1.01c-2.09,0.36 -3.67,1.94 -4.18,3.6c-11.66,-5.76 -22.75,-14.83 -28.08,-24.77c-6.84,9.94 -20.88,21.24 -34.2,27.29l-0.57,-1.08c12.09,-6.55 26.85,-20.38 30.81,-30.38zM1840.03,138.96v6.55h29.38v-6.55zM1869.41,163.3v-6.84h-29.38v6.84zM1869.41,147.6h-29.38v6.77h29.38zM1874.16,128.45l3.46,-4.18c0,0 3.88,2.95 6.26,5.19c-0.22,0.79 -0.79,1.15 -1.87,1.15h-38.67c-1.22,1.94 -2.52,3.81 -3.96,5.61l1.52,0.65h27.86l2.59,-2.81l5.47,4.25c-0.43,0.51 -1.51,1.08 -2.73,1.3v28.87c-0.07,0.5 -2.38,1.66 -3.96,1.66h-0.72v-4.68h-29.38v3.09c0,0.36 -1.58,1.59 -3.81,1.59h-0.72v-29.45c-4.61,4.82 -10.23,9.07 -16.78,12.6l-0.79,-1.01c8.71,-5.69 15.48,-13.18 20.37,-21.67h-19.22l-0.65,-2.16h21.1c1.22,-2.23 2.3,-4.61 3.31,-6.99h-18.29l-0.5,-2.01h19.51c0.86,-2.31 1.66,-4.68 2.3,-7.06c-7.77,0.58 -15.91,0.94 -23.76,0.94l-0.14,-1.44c17.71,-0.94 39.38,-4.25 50.76,-7.56l5.04,4.75c-0.72,0.58 -2.02,0.58 -3.82,-0.14c-6.26,1.15 -14.18,2.16 -22.68,3.02c-0.64,2.52 -1.44,5.04 -2.37,7.49h19.94l3.46,-4.32c0,0 3.96,3.02 6.33,5.18c-0.21,0.79 -0.86,1.15 -1.87,1.15h-28.73c-1,2.38 -2.08,4.76 -3.38,6.99zM1913.04,158.26v-19.01h-15.05v19.01zM1897.99,119.16v18h15.05v-18zM1914.98,114.05l5.62,4.53c-0.36,0.58 -1.58,1.16 -3.02,1.44v44.14c-0.08,0.5 -2.31,1.73 -3.82,1.73h-0.72v-5.55h-15.05v5.98c0,0.5 -1.73,1.66 -3.67,1.66h-0.79v-53.36l4.82,2.38h2.38c0.93,-3.67 2.09,-9 2.73,-12.74l7.56,1.8c-0.36,1 -1.22,1.58 -2.66,1.58c-1.44,2.66 -3.53,6.41 -5.26,9.36h9.22zM1950.19,113.76l5.55,4.82c-0.51,0.58 -1.37,1.01 -2.96,1.16c-0.5,26.64 -1.8,42.62 -5.18,46.8c-2.02,2.44 -4.82,3.52 -8.35,3.52c0,-1.58 -0.29,-2.95 -1.3,-3.67c-1.15,-0.86 -4.25,-1.65 -7.2,-2.16l0.07,-1.29c3.24,0.36 8.43,0.79 10.16,0.79c1.51,0 2.01,-0.15 2.8,-0.94c2.67,-2.66 3.75,-19.08 4.25,-43.7h-17.57c-3.02,5.97 -6.62,11.23 -10.51,15.12l-1.08,-0.65c4.68,-7.06 9.15,-18.22 11.59,-29.3l7.35,2.23c-0.29,0.79 -1.08,1.51 -2.67,1.44c-1.08,3.09 -2.3,6.05 -3.6,9h15.7zM1925.5,132.34l0.79,-0.51c17.28,7.85 13.1,19.51 7.92,15.41c-0.87,-4.9 -5.11,-11.09 -8.71,-14.9zM1972.22,170.5c-5.54,0 -10.15,-4.61 -10.15,-10.16c0,-5.54 4.61,-10.08 10.15,-10.08c5.55,0 10.08,4.54 10.08,10.08c0,5.55 -4.53,10.16 -10.08,10.16zM1964.52,160.34c0,4.25 3.38,7.71 7.7,7.71c4.25,0 7.64,-3.46 7.64,-7.71c0,-4.24 -3.39,-7.63 -7.64,-7.63c-4.32,0 -7.7,3.39 -7.7,7.63z"></path><g opacity="1"  transform="translate(941.0479736328125 104.75599670410156)  rotate(0)"><mask id="bg-mask-0" fill="white"><use transform="translate(0 0)  rotate(0)" xlink:href="#path_0"></use></mask><g mask="url(#bg-mask-0)" ><g opacity="1"  transform="translate(0 0)  rotate(0)"><g opacity="1"  transform="translate(0 0)  rotate(0)"><path id="Ellipse" fill-rule="evenodd" fill="url(#linear_0)" opacity="1" d="M37,0c20.44,0 37,16.56 37,37c0,20.44 -16.56,37 -37,37c-20.44,0 -37,-16.56 -37,-37c0,-20.44 16.56,-37 37,-37z"></path><path id="Ellipse" fill-rule="evenodd" fill="url(#linear_1)" opacity="1" d="M37,0c20.44,0 37,16.56 37,37c0,20.44 -16.56,37 -37,37c-20.44,0 -37,-16.56 -37,-37c0,-20.44 16.56,-37 37,-37z"></path></g><path id="Ellipse" fill-rule="evenodd" style="fill:#7F2F17" opacity="1" d="M23.0686,13.9355c2.62,0 4.72,2.38 4.72,5.33c0,2.95 -2.1,5.33 -4.72,5.33c-2.63,0 -4.73,-2.38 -4.73,-5.33c0,-2.95 2.1,-5.33 4.73,-5.33z"></path><path id="Ellipse" fill-rule="evenodd" style="fill:#7F2F17" opacity="1" d="M50.98,13.9355c2.62,0 4.72,2.38 4.72,5.33c0,2.95 -2.1,5.33 -4.72,5.33c-2.63,0 -4.73,-2.38 -4.73,-5.33c0,-2.95 2.1,-5.33 4.73,-5.33z"></path><path id="Vector" fill-rule="evenodd" fill="url(#linear_2)" opacity="1" d="M17.653,39.1431c-0.61,-3.23 1.98,-6.14 5.25,-5.94h29.77c2.42,-0.12 4.32,2.02 3.92,4.36c-1.94,8.4 -9.29,15.72 -19.59,15.72c-12.04,0 -20.08,-8.04 -19.35,-14.14z"></path></g></g></g></g><defs><rect id="path_0" x="0" y="0" width="74" height="74" /><radialGradient id="linear_0" cx="71.72697976788278%" cy="86.49619638518176%" fx="71.72697976788278%" fy="86.49619638518176%" r="0.9177766598936021" gradientTransform="translate(0.7172697976788278 0.8649619638518176) scale(0.999997834902668 1) rotate(238.58179708688164) scale(1 1.0406646841055929) translate(-0.7172697976788278 -0.8649619638518176)" ><stop offset="0" stop-color="#FF9D41" stop-opacity="1" /><stop offset="1" stop-color="#FFD75C" stop-opacity="1" /></radialGradient><radialGradient id="linear_1" cx="31.987371576533384%" cy="24.37895052456924%" fx="31.987371576533384%" fy="24.37895052456924%" r="0.6855038633281128" gradientTransform="translate(0.31987371576533385 0.2437895052456924) scale(0.999997834902668 1) rotate(58.8149709287693) scale(1 0.8533531349232154) translate(-0.31987371576533385 -0.2437895052456924)" ><stop offset="0" stop-color="#FFEFA5" stop-opacity="1" /><stop offset="1" stop-color="#FFE25E" stop-opacity="0" /></radialGradient><linearGradient id="linear_2" x1="53.09500083930006%" y1="1.0800000346117924%" x2="54.09500083930007%" y2="97.46000293223638%" gradientUnits="objectBoundingBox"><stop offset="0" stop-color="#FF3E12" stop-opacity="1" /><stop offset="1" stop-color="#FF7D16" stop-opacity="0.9" /></linearGradient></defs></svg>