<svg xmlns="http://www.w3.org/2000/svg" xmlns:xlink="http://www.w3.org/1999/xlink" width="302.47198486328125" height="66.45999145507812" viewBox="0 0 302.47198486328125 66.45999145507812" fill="none"><path id="文本 1" fill-rule="evenodd" style="fill:#000000" opacity="1" d="M49.03,4.54l7.27,3.24c-0.36,0.79 -1.29,1.29 -2.8,1.08c-3.96,5.76 -8.93,11.66 -13.32,15.48l-1.08,-0.65c2.95,-4.68 6.98,-12.17 9.93,-19.15zM3.38,5.54l0.87,-0.5c18.79,9.79 15.19,21.82 9.79,17.78c-1.37,-5.47 -6.62,-12.81 -10.66,-17.28zM51.34,23.62l5.83,4.6c-0.43,0.58 -1.59,1.23 -3.1,1.52v34.7c-0.07,0.5 -2.3,1.8 -3.96,1.8h-0.72v-5.04h-48.81l-0.58,-2.09h49.39v-14.54h-44.42l-0.65,-2.16h45.07v-13.68h-48.38l-0.65,-2.09h26.5v-26.28l7.41,0.79c-0.14,1.01 -0.86,1.73 -2.66,2.02v23.47h17.06zM93.24,45.43v-9.14h-13.9v9.14zM79.34,25.42v8.71h13.9v-8.71zM92.52,23.26l2.38,-2.88l6.04,4.53c-0.5,0.51 -1.72,1.15 -3.09,1.37v33.48c0,3.67 -0.72,5.83 -6.55,6.41c-0.08,-1.37 -0.44,-2.52 -1.23,-3.17c-0.79,-0.72 -2.16,-1.3 -4.61,-1.58v-1.16c0,0 5.19,0.44 6.48,0.44c1.01,0 1.3,-0.44 1.3,-1.37v-11.74h-13.9v16.92c0,0.51 -1.8,1.66 -3.81,1.66h-0.79v-45.15l4.96,2.24zM107.64,22.25l7.13,0.79c-0.15,1.01 -0.87,1.73 -2.67,2.02v28.8c0,0.57 -1.94,1.58 -3.6,1.58h-0.86zM123.05,59.18v-38.52l7.13,0.8c-0.22,0.93 -0.87,1.58 -2.52,1.8v36.21c0,3.75 -0.87,6.05 -7.49,6.63c-0.22,-1.3 -0.65,-2.45 -1.66,-3.1c-1.08,-0.79 -2.88,-1.37 -6.12,-1.73v-1.15c0,0 7.42,0.58 9,0.58c1.3,0 1.66,-0.44 1.66,-1.52zM124.2,13.75l3.67,-4.46c0,0 4.03,3.09 6.48,5.47c-0.21,0.79 -0.79,1.08 -1.8,1.08h-63.79l-0.58,-2.09h23.69c-0.57,0 -1.22,-0.29 -1.87,-0.72c-0.72,-4.1 -4.39,-9.14 -7.63,-12.02l0.79,-0.58c13.54,4.32 12.74,13.11 9,13.32h14.18c2.52,-4.03 5.33,-9.5 6.99,-13.46l7.63,2.23c-0.36,0.79 -1.22,1.37 -2.88,1.3c-2.23,3.02 -5.98,6.84 -9.5,9.93zM167.47,0.65l0.72,-0.65c13.54,1.87 9.94,11.81 5.04,8.64c-0.57,-2.81 -3.31,-6.26 -5.76,-7.99zM197.86,11.88h-47.67c0.07,4.54 -1.8,7.49 -3.81,8.86c-1.66,1.22 -4.25,1.36 -5.04,-0.29c-0.65,-1.59 0.28,-2.95 1.72,-3.82c2.81,-1.51 5.26,-5.69 4.9,-10.15l1.22,-0.07c0.36,1.22 0.65,2.23 0.8,3.31h47.37l2.95,-3.1l5.55,5.33c-0.58,0.58 -1.37,0.72 -2.74,0.79c-1.29,2.24 -3.74,5.48 -5.76,7.35l-0.93,-0.58c0.5,-1.94 1.08,-5.18 1.44,-7.63zM151.99,41.76l-2.59,-6.34c0,0 1.44,-0.21 1.94,-0.5c5.69,-2.59 12.82,-8.86 16.56,-13.03h-17.71l-0.57,-2.09h37.65l3.17,-3.67c0,0 3.67,2.52 5.9,4.61c-0.07,0.79 -0.79,1.15 -1.8,1.15h-22.89l3.96,2.3c-0.36,0.51 -1.37,1.08 -2.88,0.72c-4.18,3.39 -11.16,7.78 -17.57,10.87c8.28,-0.14 21.46,-0.64 35.21,-1.29c-2.38,-2.74 -5.26,-5.33 -7.56,-7.2l0.79,-0.72c18.79,6.69 16.49,17.64 11.3,14.69c-0.64,-1.66 -1.87,-3.46 -3.31,-5.26c-9.21,1.15 -22.39,2.66 -37.73,3.89c-0.5,1.01 -1.22,1.65 -1.87,1.87zM195.77,61.49l3.53,-4.39c0,0 4.17,3.02 6.76,5.32c-0.21,0.8 -0.93,1.16 -1.94,1.16h-62.93l-0.65,-2.09h30.24v-10.87h-21.88l-0.58,-2.09h22.46v-9.87l7.2,0.72c-0.14,0.94 -0.72,1.59 -2.37,1.88v7.27h13.32l3.38,-4.18c0,0 3.96,2.88 6.41,5.11c-0.22,0.8 -0.94,1.16 -1.94,1.16h-21.17v10.87zM275.69,31.9h-31.03c5.61,14.04 18.57,23.32 33.62,27.72l-0.14,0.79c-2.09,0.21 -3.75,1.65 -4.54,3.96c-14.76,-5.91 -25.63,-16.49 -30.6,-32.47h-11.09v26.85c4.97,-1.44 11.67,-3.53 18.43,-5.83l0.36,1.08c-4.53,2.45 -12.45,6.7 -21.31,11.02c-0.43,0.72 -0.93,1.22 -1.37,1.44l-3.88,-6.34c2.52,-1.44 2.95,-1.8 2.95,-3.38v-24.84h-13.39l-0.58,-2.09h13.97v-29.02l7.77,1.08c-0.14,0.79 -0.86,1.44 -2.95,1.73v20.88c11.38,-5.98 23.83,-14.47 30.53,-21.17l5.76,4.54c-0.58,0.65 -1.3,0.79 -2.81,0.14c-7.41,5.91 -20.81,13.32 -33.48,18.15v3.67h35.57l3.46,-4.54c0,0 4.1,3.17 6.55,5.47c-0.22,0.8 -0.87,1.16 -1.8,1.16zM297.94,29.66c-2.67,0 -4.61,-2.08 -4.61,-4.46c0,-2.52 1.94,-4.54 4.61,-4.54c2.59,0 4.53,2.02 4.53,4.54c0,2.38 -1.94,4.46 -4.53,4.46zM297.94,58.1c-2.67,0 -4.61,-2.08 -4.61,-4.46c0,-2.52 1.94,-4.54 4.61,-4.54c2.59,0 4.53,2.02 4.53,4.54c0,2.38 -1.94,4.46 -4.53,4.46z"></path></svg>